<?xml version="1.0" encoding="utf-8"?><svg xmlns="http://www.w3.org/2000/svg" viewBox="490 505 1020 725"><path fill="#6aa0cd" d="M592.5 805.4 L592.5 805.4 L592.8 804.9 L593.2 804.4 L593.5 804.0 L593.9 803.5 L594.2 803.0 L594.6 802.5 L595.0 802.0 L595.3 801.5 L595.7 801.0 L596.1 800.4 L596.4 799.9 L596.8 799.4 L597.2 798.8 L597.5 798.3 L597.9 797.7 L598.3 797.2 L598.7 796.6 L599.0 796.0 L599.4 795.5 L599.8 794.9 L600.2 794.3 L600.5 793.7 L600.9 793.2 L601.3 792.6 L601.6 792.0 L602.0 791.4 L602.3 790.8 L602.7 790.2 L603.0 789.6 L603.4 789.0 L603.7 788.4 L604.1 787.8 L604.4 787.1 L604.7 786.5 L605.0 785.9 L605.4 785.3 L605.7 784.7 L606.0 784.1 L606.3 783.5 L606.6 782.8 L606.9 782.2 L607.1 781.6 L607.4 781.0 L607.7 780.4 L607.9 779.8 L608.2 779.2 L608.4 778.5 L608.7 777.9 L608.9 777.3 L609.1 776.7 L609.3 776.1 L609.5 775.5 L609.7 774.9 L609.9 774.3 L610.1 773.7 L610.2 773.1 L610.4 772.5 L610.5 772.0 L610.6 771.4 L610.7 770.8 L610.7 770.8 L611.4 767.1 L611.8 763.3 L612.1 759.5 L612.2 755.7 L612.1 751.8 L612.0 748.0 L611.7 744.0 L611.2 740.1 L610.7 736.1 L610.1 732.1 L609.3 728.0 L608.5 724.0 L607.5 719.9 L606.5 715.8 L605.4 711.7 L604.3 707.6 L603.1 703.4 L601.8 699.3 L600.5 695.1 L599.2 690.9 L597.9 686.8 L596.5 682.6 L595.1 678.4 L593.7 674.2 L592.4 670.0 L591.0 665.8 L589.7 661.6 L588.3 657.4 L587.1 653.2 L585.8 649.1 L584.6 644.9 L583.5 640.7 L582.5 636.6 L581.5 632.5 L580.6 628.4 L579.7 624.3 L579.0 620.2 L578.4 616.2 L577.9 612.1 L577.5 608.1 L577.3 604.2 L577.1 600.2 L577.2 596.3 L577.3 592.4 L577.6 588.5 L578.1 584.7 L578.8 580.9 L579.6 577.2 L580.7 573.5 L581.9 569.8 L583.3 566.2 L585.0 562.7 L586.8 559.1 L588.9 555.6 L591.2 552.2 L593.8 548.8 L596.6 545.5 L599.7 542.3 L603.0 539.0 L606.6 535.9 L606.6 535.9 L609.4 533.7 L612.2 531.7 L615.0 529.8 L617.9 528.2 L620.8 526.7 L623.7 525.3 L626.7 524.1 L629.7 523.1 L632.8 522.2 L635.9 521.5 L639.0 520.9 L642.1 520.4 L645.2 520.1 L648.4 519.9 L651.6 519.8 L654.8 519.8 L658.1 520.0 L661.3 520.2 L664.6 520.6 L667.9 521.1 L671.2 521.6 L674.5 522.3 L677.8 523.0 L681.2 523.8 L684.5 524.7 L687.9 525.7 L691.2 526.7 L694.6 527.8 L697.9 529.0 L701.3 530.2 L704.7 531.5 L708.0 532.8 L711.4 534.2 L714.8 535.6 L718.1 537.0 L721.5 538.5 L724.8 540.0 L728.1 541.5 L731.5 543.0 L734.8 544.5 L738.1 546.1 L741.3 547.6 L744.6 549.2 L747.9 550.7 L751.1 552.2 L754.3 553.8 L757.5 555.2 L760.6 556.7 L763.8 558.2 L766.9 559.6 L770.0 560.9 L773.0 562.3 L776.1 563.6 L779.1 564.8 L782.0 566.0 L785.0 567.1 L787.9 568.1 L790.7 569.1 L793.5 570.0 L796.3 570.9 L796.3 570.9 L798.2 571.4 L800.0 571.9 L801.8 572.3 L803.6 572.7 L805.4 573.1 L807.2 573.5 L809.0 573.8 L810.7 574.1 L812.5 574.3 L814.2 574.6 L816.0 574.8 L817.7 574.9 L819.5 575.1 L821.2 575.2 L822.9 575.3 L824.6 575.4 L826.3 575.4 L828.0 575.5 L829.7 575.5 L831.4 575.5 L833.1 575.4 L834.8 575.4 L836.5 575.3 L838.2 575.2 L839.8 575.1 L841.5 575.0 L843.2 574.9 L844.9 574.8 L846.5 574.6 L848.2 574.4 L849.9 574.3 L851.6 574.1 L853.3 573.9 L854.9 573.7 L856.6 573.5 L858.3 573.2 L860.0 573.0 L861.7 572.8 L863.4 572.6 L865.1 572.3 L866.7 572.1 L868.5 571.8 L870.2 571.6 L871.9 571.4 L873.6 571.1 L875.3 570.9 L877.1 570.6 L878.8 570.4 L880.5 570.2 L882.3 569.9 L884.1 569.7 L885.8 569.5 L887.6 569.3 L889.4 569.1 L891.2 568.9 L893.0 568.7 L894.8 568.6 L896.6 568.4 L898.5 568.3 L900.3 568.1 L900.3 568.1 L901.7 568.0 L903.0 567.9 L904.4 567.8 L905.7 567.7 L907.1 567.6 L908.4 567.5 L909.8 567.4 L911.2 567.3 L912.5 567.2 L913.9 567.1 L915.2 567.0 L916.6 566.9 L917.9 566.8 L919.2 566.7 L920.6 566.6 L921.9 566.5 L923.3 566.4 L924.6 566.3 L926.0 566.2 L927.3 566.1 L928.7 565.9 L930.0 565.8 L931.4 565.7 L932.7 565.6 L934.1 565.5 L935.4 565.4 L936.8 565.3 L938.1 565.2 L939.5 565.1 L940.8 565.0 L942.2 564.9 L943.5 564.8 L944.9 564.7 L946.2 564.6 L947.6 564.5 L948.9 564.4 L950.3 564.3 L951.6 564.3 L953.0 564.2 L954.3 564.1 L955.7 564.0 L957.1 563.9 L958.4 563.8 L959.8 563.8 L961.1 563.7 L962.5 563.6 L963.8 563.5 L965.2 563.5 L966.6 563.4 L967.9 563.3 L969.3 563.3 L970.6 563.2 L972.0 563.2 L973.4 563.1 L974.7 563.1 L976.1 563.0 L977.5 563.0 L978.8 563.0 L980.2 562.9 L981.6 562.9 L981.6 562.9 L983.5 562.9 L985.4 562.8 L987.3 562.8 L989.2 562.8 L991.1 562.8 L993.0 562.8 L994.9 562.8 L996.8 562.8 L998.7 562.8 L1004.0 562.8 L1004.0 1097.5 L999.0 1097.6 L997.8 1097.6 L996.7 1097.7 L995.6 1097.8 L994.4 1097.9 L993.3 1098.1 L992.1 1098.2 L990.9 1098.4 L989.8 1098.6 L988.6 1098.8 L987.4 1099.1 L986.1 1099.3 L984.9 1099.6 L983.7 1099.9 L982.4 1100.2 L981.1 1100.5 L979.8 1100.9 L978.4 1101.3 L977.1 1101.6 L975.7 1102.0 L974.3 1102.5 L972.9 1102.9 L971.4 1103.4 L969.9 1103.8 L968.4 1104.3 L966.8 1104.8 L965.2 1105.4 L963.6 1105.9 L962.0 1106.5 L962.0 1106.5 L962.8 1103.5 L963.7 1100.4 L964.4 1097.4 L965.1 1094.4 L965.7 1091.3 L966.3 1088.3 L966.8 1085.3 L967.2 1082.3 L967.6 1079.2 L967.9 1076.2 L968.2 1073.2 L968.4 1070.2 L968.6 1067.1 L968.7 1064.1 L968.8 1061.1 L968.9 1058.1 L968.9 1055.1 L968.8 1052.1 L968.7 1049.0 L968.6 1046.0 L968.4 1043.0 L968.2 1040.0 L967.9 1037.0 L967.7 1034.0 L967.4 1031.0 L967.0 1028.0 L966.6 1025.0 L966.2 1022.0 L965.8 1019.0 L965.3 1016.0 L964.9 1013.0 L964.4 1010.0 L963.8 1007.0 L963.3 1004.0 L962.7 1001.1 L962.1 998.1 L961.5 995.1 L960.9 992.1 L960.3 989.1 L959.7 986.2 L959.0 983.2 L958.4 980.2 L957.7 977.3 L957.0 974.3 L956.4 971.3 L955.7 968.4 L955.0 965.4 L954.3 962.5 L953.7 959.5 L953.0 956.6 L952.3 953.6 L951.6 950.7 L951.0 947.7 L950.3 944.8 L949.7 941.8 L949.1 938.9 L948.5 936.0 L947.9 933.0 L947.3 930.1 L946.7 927.2 L946.5 926.0 L946.5 926.0 L947.5 923.7 L948.4 921.4 L949.3 919.0 L950.2 916.6 L951.1 914.2 L951.9 911.7 L952.8 909.3 L953.6 906.8 L954.4 904.2 L955.2 901.7 L955.9 899.1 L956.7 896.5 L957.4 893.9 L958.0 891.3 L958.7 888.6 L959.4 886.0 L960.0 883.3 L960.6 880.6 L961.1 877.8 L961.7 875.1 L962.2 872.4 L962.7 869.6 L963.1 866.9 L963.6 864.1 L964.0 861.3 L964.4 858.5 L964.7 855.7 L965.0 852.9 L965.3 850.1 L965.6 847.3 L965.8 844.5 L966.0 841.7 L966.2 838.9 L966.4 836.1 L966.5 833.3 L966.6 830.5 L966.6 827.7 L966.7 824.9 L966.7 822.1 L966.6 819.3 L966.5 816.6 L966.4 813.8 L966.3 811.1 L966.1 808.3 L965.9 805.6 L965.7 802.9 L965.4 800.2 L965.1 797.5 L964.7 794.9 L964.3 792.2 L963.9 789.6 L963.5 787.0 L963.0 784.4 L962.4 781.9 L961.8 779.3 L961.2 776.8 L960.6 774.3 L959.9 771.9 L959.2 769.5 L958.4 767.1 L958.4 767.1 L957.8 765.3 L957.2 763.6 L956.6 761.9 L956.0 760.3 L955.4 758.7 L954.8 757.2 L954.2 755.7 L953.5 754.2 L952.9 752.7 L952.2 751.3 L951.6 750.0 L950.9 748.6 L950.2 747.3 L949.5 746.1 L948.8 744.8 L948.0 743.6 L947.3 742.5 L946.5 741.4 L945.8 740.3 L945.0 739.2 L944.2 738.2 L943.3 737.2 L942.5 736.2 L941.7 735.3 L940.8 734.3 L939.9 733.5 L939.0 732.6 L938.0 731.8 L937.1 731.0 L936.1 730.2 L935.1 729.5 L934.1 728.8 L933.1 728.1 L932.0 727.5 L930.9 726.8 L929.8 726.2 L928.7 725.7 L927.5 725.1 L926.3 724.6 L925.1 724.1 L923.9 723.6 L922.6 723.2 L921.3 722.7 L920.0 722.3 L918.6 721.9 L917.2 721.6 L915.8 721.2 L914.3 720.9 L912.9 720.6 L911.4 720.3 L909.8 720.1 L908.2 719.8 L906.6 719.6 L905.0 719.4 L903.3 719.2 L901.6 719.1 L899.8 718.9 L898.1 718.8 L896.2 718.7 L894.4 718.6 L894.4 718.6 L890.4 718.4 L886.3 718.3 L882.3 718.2 L878.3 718.2 L874.2 718.3 L870.2 718.4 L866.1 718.5 L862.1 718.7 L858.0 718.9 L853.9 719.2 L849.8 719.5 L845.8 719.9 L841.7 720.3 L837.6 720.8 L833.5 721.3 L829.4 721.8 L825.3 722.4 L821.2 723.0 L817.2 723.7 L813.1 724.4 L809.0 725.1 L804.9 725.9 L800.8 726.7 L796.7 727.5 L792.7 728.4 L788.6 729.3 L784.5 730.2 L780.4 731.2 L776.4 732.2 L772.3 733.3 L768.3 734.3 L764.2 735.4 L760.2 736.5 L756.2 737.7 L752.2 738.9 L748.2 740.1 L744.2 741.3 L740.2 742.5 L736.2 743.8 L732.2 745.1 L728.3 746.4 L724.3 747.7 L720.4 749.1 L716.5 750.4 L712.6 751.8 L708.7 753.2 L704.8 754.7 L701.0 756.1 L697.1 757.5 L693.3 759.0 L689.5 760.5 L685.7 762.0 L681.9 763.5 L678.1 765.0 L674.4 766.5 L670.7 768.0 L667.0 769.6 L663.3 771.1 L659.6 772.7 L656.0 774.2 L656.0 774.2 L655.5 774.5 L654.9 774.7 L654.4 774.9 L653.8 775.2 L653.3 775.4 L652.7 775.6 L652.2 775.9 L651.7 776.1 L651.1 776.3 L650.6 776.6 L650.0 776.8 L649.5 777.0 L649.0 777.3 L648.4 777.5 L647.9 777.7 L647.3 778.0 L646.8 778.2 L646.3 778.5 L645.7 778.7 L645.2 778.9 L644.7 779.2 L644.1 779.4 L643.6 779.7 L643.1 779.9 L642.5 780.2 L642.0 780.4 L641.5 780.7 L640.9 780.9 L640.4 781.2 L639.8 781.4 L639.3 781.7 L638.8 781.9 L638.3 782.2 L637.7 782.4 L637.2 782.7 L636.7 782.9 L636.1 783.2 L635.6 783.4 L635.1 783.7 L634.5 784.0 L634.0 784.2 L633.5 784.5 L632.9 784.7 L632.4 785.0 L631.9 785.3 L631.4 785.5 L630.8 785.8 L630.3 786.0 L629.8 786.3 L629.3 786.6 L628.7 786.8 L628.2 787.1 L627.7 787.4 L627.2 787.6 L626.6 787.9 L626.1 788.2 L625.6 788.5 L625.1 788.7 L624.5 789.0 L624.0 789.3 L624.0 789.3 L623.5 789.5 L623.0 789.8 L622.5 790.1 L622.0 790.3 L621.5 790.6 L621.0 790.9 L620.5 791.2 L620.0 791.5 L619.5 791.7 L619.0 792.0 L618.5 792.3 L618.0 792.6 L617.5 792.9 L616.9 793.2 L616.4 793.5 L615.9 793.8 L615.4 794.1 L614.8 794.4 L614.3 794.7 L613.8 795.0 L613.3 795.3 L612.7 795.6 L612.2 795.9 L611.7 796.2 L611.1 796.5 L610.6 796.8 L610.1 797.1 L609.5 797.3 L609.0 797.6 L608.4 797.9 L607.9 798.2 L607.4 798.5 L606.8 798.8 L606.3 799.1 L605.7 799.4 L605.2 799.7 L604.7 799.9 L604.1 800.2 L603.6 800.5 L603.0 800.8 L602.5 801.0 L602.0 801.3 L601.4 801.6 L600.9 801.8 L600.4 802.1 L599.8 802.3 L599.3 802.6 L598.8 802.8 L598.2 803.1 L597.7 803.3 L597.2 803.5 L596.6 803.8 L596.1 804.0 L595.6 804.2 L595.1 804.4 L594.5 804.6 L594.0 804.8 L593.5 805.0 L593.0 805.2 L592.5 805.4 L592.5 805.4 Z"/><path fill="#6aa0cd" d="M1407.5 805.4 L1407.5 805.4 L1407.2 804.9 L1406.8 804.4 L1406.5 804.0 L1406.1 803.5 L1405.8 803.0 L1405.4 802.5 L1405.0 802.0 L1404.7 801.5 L1404.3 801.0 L1403.9 800.4 L1403.6 799.9 L1403.2 799.4 L1402.8 798.8 L1402.5 798.3 L1402.1 797.7 L1401.7 797.2 L1401.3 796.6 L1401.0 796.0 L1400.6 795.5 L1400.2 794.9 L1399.8 794.3 L1399.5 793.7 L1399.1 793.2 L1398.7 792.6 L1398.4 792.0 L1398.0 791.4 L1397.7 790.8 L1397.3 790.2 L1397.0 789.6 L1396.6 789.0 L1396.3 788.4 L1395.9 787.8 L1395.6 787.1 L1395.3 786.5 L1395.0 785.9 L1394.6 785.3 L1394.3 784.7 L1394.0 784.1 L1393.7 783.5 L1393.4 782.8 L1393.1 782.2 L1392.9 781.6 L1392.6 781.0 L1392.3 780.4 L1392.1 779.8 L1391.8 779.2 L1391.6 778.5 L1391.3 777.9 L1391.1 777.3 L1390.9 776.7 L1390.7 776.1 L1390.5 775.5 L1390.3 774.9 L1390.1 774.3 L1389.9 773.7 L1389.8 773.1 L1389.6 772.5 L1389.5 772.0 L1389.4 771.4 L1389.3 770.8 L1389.3 770.8 L1388.6 767.1 L1388.2 763.3 L1387.9 759.5 L1387.8 755.7 L1387.9 751.8 L1388.0 748.0 L1388.3 744.0 L1388.8 740.1 L1389.3 736.1 L1389.9 732.1 L1390.7 728.0 L1391.5 724.0 L1392.5 719.9 L1393.5 715.8 L1394.6 711.7 L1395.7 707.6 L1396.9 703.4 L1398.2 699.3 L1399.5 695.1 L1400.8 690.9 L1402.1 686.8 L1403.5 682.6 L1404.9 678.4 L1406.3 674.2 L1407.6 670.0 L1409.0 665.8 L1410.3 661.6 L1411.7 657.4 L1412.9 653.2 L1414.2 649.1 L1415.4 644.9 L1416.5 640.7 L1417.5 636.6 L1418.5 632.5 L1419.4 628.4 L1420.3 624.3 L1421.0 620.2 L1421.6 616.2 L1422.1 612.1 L1422.5 608.1 L1422.7 604.2 L1422.9 600.2 L1422.8 596.3 L1422.7 592.4 L1422.4 588.5 L1421.9 584.7 L1421.2 580.9 L1420.4 577.2 L1419.3 573.5 L1418.1 569.8 L1416.7 566.2 L1415.0 562.7 L1413.2 559.1 L1411.1 555.6 L1408.8 552.2 L1406.2 548.8 L1403.4 545.5 L1400.3 542.3 L1397.0 539.0 L1393.4 535.9 L1393.4 535.9 L1390.6 533.7 L1387.8 531.7 L1385.0 529.8 L1382.1 528.2 L1379.2 526.7 L1376.3 525.3 L1373.3 524.1 L1370.3 523.1 L1367.2 522.2 L1364.1 521.5 L1361.0 520.9 L1357.9 520.4 L1354.8 520.1 L1351.6 519.9 L1348.4 519.8 L1345.2 519.8 L1341.9 520.0 L1338.7 520.2 L1335.4 520.6 L1332.1 521.1 L1328.8 521.6 L1325.5 522.3 L1322.2 523.0 L1318.8 523.8 L1315.5 524.7 L1312.1 525.7 L1308.8 526.7 L1305.4 527.8 L1302.1 529.0 L1298.7 530.2 L1295.3 531.5 L1292.0 532.8 L1288.6 534.2 L1285.2 535.6 L1281.9 537.0 L1278.5 538.5 L1275.2 540.0 L1271.9 541.5 L1268.5 543.0 L1265.2 544.5 L1261.9 546.1 L1258.7 547.6 L1255.4 549.2 L1252.1 550.7 L1248.9 552.2 L1245.7 553.8 L1242.5 555.2 L1239.4 556.7 L1236.2 558.2 L1233.1 559.6 L1230.0 560.9 L1227.0 562.3 L1223.9 563.6 L1220.9 564.8 L1218.0 566.0 L1215.0 567.1 L1212.1 568.1 L1209.3 569.1 L1206.5 570.0 L1203.7 570.9 L1203.7 570.9 L1201.8 571.4 L1200.0 571.9 L1198.2 572.3 L1196.4 572.7 L1194.6 573.1 L1192.8 573.5 L1191.0 573.8 L1189.3 574.1 L1187.5 574.3 L1185.8 574.6 L1184.0 574.8 L1182.3 574.9 L1180.5 575.1 L1178.8 575.2 L1177.1 575.3 L1175.4 575.4 L1173.7 575.4 L1172.0 575.5 L1170.3 575.5 L1168.6 575.5 L1166.9 575.4 L1165.2 575.4 L1163.5 575.3 L1161.8 575.2 L1160.2 575.1 L1158.5 575.0 L1156.8 574.9 L1155.1 574.8 L1153.5 574.6 L1151.8 574.4 L1150.1 574.3 L1148.4 574.1 L1146.7 573.9 L1145.1 573.7 L1143.4 573.5 L1141.7 573.2 L1140.0 573.0 L1138.3 572.8 L1136.6 572.6 L1134.9 572.3 L1133.3 572.1 L1131.5 571.8 L1129.8 571.6 L1128.1 571.4 L1126.4 571.1 L1124.7 570.9 L1122.9 570.6 L1121.2 570.4 L1119.5 570.2 L1117.7 569.9 L1115.9 569.7 L1114.2 569.5 L1112.4 569.3 L1110.6 569.1 L1108.8 568.9 L1107.0 568.7 L1105.2 568.6 L1103.4 568.4 L1101.5 568.3 L1099.7 568.1 L1099.7 568.1 L1098.3 568.0 L1097.0 567.9 L1095.6 567.8 L1094.3 567.7 L1092.9 567.6 L1091.6 567.5 L1090.2 567.4 L1088.8 567.3 L1087.5 567.2 L1086.1 567.1 L1084.8 567.0 L1083.4 566.9 L1082.1 566.8 L1080.8 566.7 L1079.4 566.6 L1078.1 566.5 L1076.7 566.4 L1075.4 566.3 L1074.0 566.2 L1072.7 566.1 L1071.3 565.9 L1070.0 565.8 L1068.6 565.7 L1067.3 565.6 L1065.9 565.5 L1064.6 565.4 L1063.2 565.3 L1061.9 565.2 L1060.5 565.1 L1059.2 565.0 L1057.8 564.9 L1056.5 564.8 L1055.1 564.7 L1053.8 564.6 L1052.4 564.5 L1051.1 564.4 L1049.7 564.3 L1048.4 564.3 L1047.0 564.2 L1045.7 564.1 L1044.3 564.0 L1042.9 563.9 L1041.6 563.8 L1040.2 563.8 L1038.9 563.7 L1037.5 563.6 L1036.2 563.5 L1034.8 563.5 L1033.4 563.4 L1032.1 563.3 L1030.7 563.3 L1029.4 563.2 L1028.0 563.2 L1026.6 563.1 L1025.3 563.1 L1023.9 563.0 L1022.5 563.0 L1021.2 563.0 L1019.8 562.9 L1018.4 562.9 L1018.4 562.9 L1016.5 562.9 L1014.6 562.8 L1012.7 562.8 L1010.8 562.8 L1008.9 562.8 L1007.0 562.8 L1005.1 562.8 L1003.2 562.8 L1001.3 562.8 L996.0 562.8 L996.0 1097.5 L1001.0 1097.6 L1002.2 1097.6 L1003.3 1097.7 L1004.4 1097.8 L1005.6 1097.9 L1006.7 1098.1 L1007.9 1098.2 L1009.1 1098.4 L1010.2 1098.6 L1011.4 1098.8 L1012.6 1099.1 L1013.9 1099.3 L1015.1 1099.6 L1016.3 1099.9 L1017.6 1100.2 L1018.9 1100.5 L1020.2 1100.9 L1021.6 1101.3 L1022.9 1101.6 L1024.3 1102.0 L1025.7 1102.5 L1027.1 1102.9 L1028.6 1103.4 L1030.1 1103.8 L1031.6 1104.3 L1033.2 1104.8 L1034.8 1105.4 L1036.4 1105.9 L1038.0 1106.5 L1038.0 1106.5 L1037.2 1103.5 L1036.3 1100.4 L1035.6 1097.4 L1034.9 1094.4 L1034.3 1091.3 L1033.7 1088.3 L1033.2 1085.3 L1032.8 1082.3 L1032.4 1079.2 L1032.1 1076.2 L1031.8 1073.2 L1031.6 1070.2 L1031.4 1067.1 L1031.3 1064.1 L1031.2 1061.1 L1031.1 1058.1 L1031.1 1055.1 L1031.2 1052.1 L1031.3 1049.0 L1031.4 1046.0 L1031.6 1043.0 L1031.8 1040.0 L1032.1 1037.0 L1032.3 1034.0 L1032.6 1031.0 L1033.0 1028.0 L1033.4 1025.0 L1033.8 1022.0 L1034.2 1019.0 L1034.7 1016.0 L1035.1 1013.0 L1035.6 1010.0 L1036.2 1007.0 L1036.7 1004.0 L1037.3 1001.1 L1037.9 998.1 L1038.5 995.1 L1039.1 992.1 L1039.7 989.1 L1040.3 986.2 L1041.0 983.2 L1041.6 980.2 L1042.3 977.3 L1043.0 974.3 L1043.6 971.3 L1044.3 968.4 L1045.0 965.4 L1045.7 962.5 L1046.3 959.5 L1047.0 956.6 L1047.7 953.6 L1048.4 950.7 L1049.0 947.7 L1049.7 944.8 L1050.3 941.8 L1050.9 938.9 L1051.5 936.0 L1052.1 933.0 L1052.7 930.1 L1053.3 927.2 L1053.5 926.0 L1053.5 926.0 L1052.5 923.7 L1051.6 921.4 L1050.7 919.0 L1049.8 916.6 L1048.9 914.2 L1048.1 911.7 L1047.2 909.3 L1046.4 906.8 L1045.6 904.2 L1044.8 901.7 L1044.1 899.1 L1043.3 896.5 L1042.6 893.9 L1042.0 891.3 L1041.3 888.6 L1040.6 886.0 L1040.0 883.3 L1039.4 880.6 L1038.9 877.8 L1038.3 875.1 L1037.8 872.4 L1037.3 869.6 L1036.9 866.9 L1036.4 864.1 L1036.0 861.3 L1035.6 858.5 L1035.3 855.7 L1035.0 852.9 L1034.7 850.1 L1034.4 847.3 L1034.2 844.5 L1034.0 841.7 L1033.8 838.9 L1033.6 836.1 L1033.5 833.3 L1033.4 830.5 L1033.4 827.7 L1033.3 824.9 L1033.3 822.1 L1033.4 819.3 L1033.5 816.6 L1033.6 813.8 L1033.7 811.1 L1033.9 808.3 L1034.1 805.6 L1034.3 802.9 L1034.6 800.2 L1034.9 797.5 L1035.3 794.9 L1035.7 792.2 L1036.1 789.6 L1036.5 787.0 L1037.0 784.4 L1037.6 781.9 L1038.2 779.3 L1038.8 776.8 L1039.4 774.3 L1040.1 771.9 L1040.8 769.5 L1041.6 767.1 L1041.6 767.1 L1042.2 765.3 L1042.8 763.6 L1043.4 761.9 L1044.0 760.3 L1044.6 758.7 L1045.2 757.2 L1045.8 755.7 L1046.5 754.2 L1047.1 752.7 L1047.8 751.3 L1048.4 750.0 L1049.1 748.6 L1049.8 747.3 L1050.5 746.1 L1051.2 744.8 L1052.0 743.6 L1052.7 742.5 L1053.5 741.4 L1054.2 740.3 L1055.0 739.2 L1055.8 738.2 L1056.7 737.2 L1057.5 736.2 L1058.3 735.3 L1059.2 734.3 L1060.1 733.5 L1061.0 732.6 L1062.0 731.8 L1062.9 731.0 L1063.9 730.2 L1064.9 729.5 L1065.9 728.8 L1066.9 728.1 L1068.0 727.5 L1069.1 726.8 L1070.2 726.2 L1071.3 725.7 L1072.5 725.1 L1073.7 724.6 L1074.9 724.1 L1076.1 723.6 L1077.4 723.2 L1078.7 722.7 L1080.0 722.3 L1081.4 721.9 L1082.8 721.6 L1084.2 721.2 L1085.7 720.9 L1087.1 720.6 L1088.6 720.3 L1090.2 720.1 L1091.8 719.8 L1093.4 719.6 L1095.0 719.4 L1096.7 719.2 L1098.4 719.1 L1100.2 718.9 L1101.9 718.8 L1103.8 718.7 L1105.6 718.6 L1105.6 718.6 L1109.6 718.4 L1113.7 718.3 L1117.7 718.2 L1121.7 718.2 L1125.8 718.3 L1129.8 718.4 L1133.9 718.5 L1137.9 718.7 L1142.0 718.9 L1146.1 719.2 L1150.2 719.5 L1154.2 719.9 L1158.3 720.3 L1162.4 720.8 L1166.5 721.3 L1170.6 721.8 L1174.7 722.4 L1178.8 723.0 L1182.8 723.7 L1186.9 724.4 L1191.0 725.1 L1195.1 725.9 L1199.2 726.7 L1203.3 727.5 L1207.3 728.4 L1211.4 729.3 L1215.5 730.2 L1219.6 731.2 L1223.6 732.2 L1227.7 733.3 L1231.7 734.3 L1235.8 735.4 L1239.8 736.5 L1243.8 737.7 L1247.8 738.9 L1251.8 740.1 L1255.8 741.3 L1259.8 742.5 L1263.8 743.8 L1267.8 745.1 L1271.7 746.4 L1275.7 747.7 L1279.6 749.1 L1283.5 750.4 L1287.4 751.8 L1291.3 753.2 L1295.2 754.7 L1299.0 756.1 L1302.9 757.5 L1306.7 759.0 L1310.5 760.5 L1314.3 762.0 L1318.1 763.5 L1321.9 765.0 L1325.6 766.5 L1329.3 768.0 L1333.0 769.6 L1336.7 771.1 L1340.4 772.7 L1344.0 774.2 L1344.0 774.2 L1344.5 774.5 L1345.1 774.7 L1345.6 774.9 L1346.2 775.2 L1346.7 775.4 L1347.3 775.6 L1347.8 775.9 L1348.3 776.1 L1348.9 776.3 L1349.4 776.6 L1350.0 776.8 L1350.5 777.0 L1351.0 777.3 L1351.6 777.5 L1352.1 777.7 L1352.7 778.0 L1353.2 778.2 L1353.7 778.5 L1354.3 778.7 L1354.8 778.9 L1355.3 779.2 L1355.9 779.4 L1356.4 779.7 L1356.9 779.9 L1357.5 780.2 L1358.0 780.4 L1358.5 780.7 L1359.1 780.9 L1359.6 781.2 L1360.2 781.4 L1360.7 781.7 L1361.2 781.9 L1361.7 782.2 L1362.3 782.4 L1362.8 782.7 L1363.3 782.9 L1363.9 783.2 L1364.4 783.4 L1364.9 783.7 L1365.5 784.0 L1366.0 784.2 L1366.5 784.5 L1367.1 784.7 L1367.6 785.0 L1368.1 785.3 L1368.6 785.5 L1369.2 785.8 L1369.7 786.0 L1370.2 786.3 L1370.7 786.6 L1371.3 786.8 L1371.8 787.1 L1372.3 787.4 L1372.8 787.6 L1373.4 787.9 L1373.9 788.2 L1374.4 788.5 L1374.9 788.7 L1375.5 789.0 L1376.0 789.3 L1376.0 789.3 L1376.5 789.5 L1377.0 789.8 L1377.5 790.1 L1378.0 790.3 L1378.5 790.6 L1379.0 790.9 L1379.5 791.2 L1380.0 791.5 L1380.5 791.7 L1381.0 792.0 L1381.5 792.3 L1382.0 792.6 L1382.5 792.9 L1383.1 793.2 L1383.6 793.5 L1384.1 793.8 L1384.6 794.1 L1385.2 794.4 L1385.7 794.7 L1386.2 795.0 L1386.7 795.3 L1387.3 795.6 L1387.8 795.9 L1388.3 796.2 L1388.9 796.5 L1389.4 796.8 L1389.9 797.1 L1390.5 797.3 L1391.0 797.6 L1391.6 797.9 L1392.1 798.2 L1392.6 798.5 L1393.2 798.8 L1393.7 799.1 L1394.3 799.4 L1394.8 799.7 L1395.3 799.9 L1395.9 800.2 L1396.4 800.5 L1397.0 800.8 L1397.5 801.0 L1398.0 801.3 L1398.6 801.6 L1399.1 801.8 L1399.6 802.1 L1400.2 802.3 L1400.7 802.6 L1401.2 802.8 L1401.8 803.1 L1402.3 803.3 L1402.8 803.5 L1403.4 803.8 L1403.9 804.0 L1404.4 804.2 L1404.9 804.4 L1405.5 804.6 L1406.0 804.8 L1406.5 805.0 L1407.0 805.2 L1407.5 805.4 L1407.5 805.4 Z"/><path fill="#295978" d="M659.1 567.7 L659.1 567.7 L660.8 567.5 L662.6 567.5 L664.5 567.5 L666.3 567.5 L668.2 567.5 L670.1 567.6 L672.0 567.7 L674.0 567.9 L676.0 568.1 L678.0 568.3 L680.0 568.6 L682.0 568.9 L684.1 569.2 L686.1 569.5 L688.2 569.9 L690.3 570.3 L692.4 570.8 L694.5 571.2 L696.6 571.7 L698.7 572.2 L700.9 572.8 L703.0 573.3 L705.2 573.9 L707.3 574.6 L709.5 575.2 L711.6 575.9 L713.8 576.5 L715.9 577.2 L718.1 578.0 L720.2 578.7 L722.4 579.5 L724.5 580.2 L726.6 581.0 L728.8 581.8 L730.9 582.6 L733.0 583.5 L735.1 584.3 L737.2 585.2 L739.2 586.1 L741.3 587.0 L743.3 587.9 L745.3 588.8 L747.3 589.7 L749.3 590.6 L751.3 591.5 L753.2 592.5 L755.1 593.4 L757.0 594.4 L758.9 595.3 L760.7 596.3 L762.5 597.3 L764.3 598.2 L766.1 599.2 L767.8 600.2 L769.5 601.1 L771.2 602.1 L772.8 603.1 L774.4 604.0 L775.9 605.0 L777.4 605.9 L777.4 605.9 L777.8 606.2 L778.1 606.4 L778.4 606.6 L778.7 606.9 L779.0 607.1 L779.3 607.4 L779.6 607.6 L779.9 607.9 L780.2 608.2 L780.5 608.4 L780.7 608.7 L781.0 609.0 L781.2 609.3 L781.5 609.6 L781.7 609.9 L781.9 610.2 L782.1 610.5 L782.3 610.8 L782.5 611.1 L782.7 611.4 L782.9 611.7 L783.0 612.1 L783.2 612.4 L783.3 612.7 L783.5 613.1 L783.6 613.4 L783.7 613.7 L783.8 614.1 L783.9 614.4 L783.9 614.7 L784.0 615.1 L784.1 615.4 L784.1 615.8 L784.1 616.1 L784.1 616.5 L784.1 616.8 L784.1 617.2 L784.1 617.5 L784.1 617.8 L784.0 618.2 L783.9 618.5 L783.8 618.9 L783.8 619.2 L783.6 619.6 L783.5 619.9 L783.4 620.3 L783.2 620.6 L783.1 620.9 L782.9 621.3 L782.7 621.6 L782.5 622.0 L782.2 622.3 L782.0 622.6 L781.7 622.9 L781.5 623.3 L781.2 623.6 L780.9 623.9 L780.5 624.2 L780.2 624.5 L779.8 624.8 L779.8 624.8 L779.3 625.3 L778.7 625.7 L778.2 626.2 L777.6 626.6 L777.0 627.1 L776.5 627.5 L775.9 628.0 L775.4 628.4 L774.8 628.9 L774.2 629.3 L773.6 629.7 L773.1 630.2 L772.5 630.6 L771.9 631.0 L771.4 631.5 L770.8 631.9 L770.2 632.3 L769.6 632.8 L769.0 633.2 L768.5 633.6 L767.9 634.0 L767.3 634.5 L766.7 634.9 L766.1 635.3 L765.6 635.7 L765.0 636.1 L764.4 636.5 L763.8 637.0 L763.2 637.4 L762.6 637.8 L762.0 638.2 L761.5 638.6 L760.9 639.0 L760.3 639.4 L759.7 639.9 L759.1 640.3 L758.5 640.7 L757.9 641.1 L757.3 641.5 L756.7 641.9 L756.1 642.3 L755.6 642.7 L755.0 643.1 L754.4 643.6 L753.8 644.0 L753.2 644.4 L752.6 644.8 L752.0 645.2 L751.4 645.6 L750.8 646.0 L750.2 646.4 L749.7 646.9 L749.1 647.3 L748.5 647.7 L747.9 648.1 L747.3 648.5 L746.7 649.0 L746.1 649.4 L745.6 649.8 L745.0 650.2 L745.0 650.2 L744.2 650.8 L743.4 651.4 L742.6 651.9 L741.8 652.5 L741.1 653.1 L740.3 653.7 L739.5 654.3 L738.7 654.9 L737.9 655.4 L737.2 656.0 L736.4 656.6 L735.6 657.2 L734.8 657.8 L734.1 658.4 L733.3 659.0 L732.5 659.5 L731.7 660.1 L731.0 660.7 L730.2 661.3 L729.4 661.9 L728.7 662.5 L727.9 663.1 L727.1 663.7 L726.4 664.3 L725.6 664.9 L724.8 665.5 L724.1 666.1 L723.3 666.7 L722.5 667.3 L721.8 667.9 L721.0 668.5 L720.2 669.1 L719.5 669.7 L718.7 670.3 L717.9 670.9 L717.2 671.5 L716.4 672.1 L715.7 672.7 L714.9 673.3 L714.1 673.9 L713.4 674.5 L712.6 675.2 L711.9 675.8 L711.1 676.4 L710.4 677.0 L709.6 677.6 L708.9 678.2 L708.1 678.8 L707.4 679.5 L706.6 680.1 L705.8 680.7 L705.1 681.3 L704.3 681.9 L703.6 682.5 L702.9 683.2 L702.1 683.8 L701.4 684.4 L700.6 685.0 L699.9 685.7 L699.1 686.3 L699.1 686.3 L698.7 686.6 L698.3 687.1 L697.8 687.5 L697.2 688.0 L696.6 688.6 L696.0 689.2 L695.4 689.8 L694.7 690.5 L694.0 691.2 L693.2 691.9 L692.4 692.7 L691.6 693.5 L690.7 694.3 L689.9 695.1 L689.0 696.0 L688.1 696.9 L687.1 697.8 L686.2 698.8 L685.2 699.7 L684.2 700.7 L683.2 701.7 L682.2 702.7 L681.2 703.7 L680.2 704.7 L679.1 705.7 L678.1 706.8 L677.0 707.8 L676.0 708.8 L674.9 709.9 L673.9 710.9 L672.8 711.9 L671.8 712.9 L670.7 713.9 L669.7 714.9 L668.7 715.9 L667.7 716.9 L666.7 717.8 L665.7 718.8 L664.8 719.7 L663.8 720.6 L662.9 721.5 L662.0 722.3 L661.1 723.2 L660.3 724.0 L659.4 724.7 L658.6 725.5 L657.9 726.2 L657.1 726.8 L656.4 727.5 L655.7 728.1 L655.1 728.6 L654.5 729.1 L654.0 729.6 L653.4 730.0 L653.0 730.4 L652.6 730.7 L652.2 731.0 L651.8 731.2 L651.6 731.3 L651.3 731.4 L651.3 731.4 L650.7 731.1 L650.2 730.7 L649.6 730.2 L649.0 729.7 L648.4 729.2 L647.9 728.6 L647.3 727.9 L646.7 727.2 L646.2 726.5 L645.6 725.7 L645.1 724.9 L644.6 724.0 L644.0 723.1 L643.5 722.2 L643.0 721.2 L642.5 720.2 L641.9 719.2 L641.4 718.1 L640.9 717.0 L640.4 715.9 L639.9 714.8 L639.5 713.7 L639.0 712.5 L638.5 711.3 L638.0 710.1 L637.6 708.9 L637.1 707.6 L636.7 706.4 L636.3 705.1 L635.8 703.9 L635.4 702.6 L635.0 701.3 L634.6 700.0 L634.2 698.8 L633.8 697.5 L633.4 696.2 L633.0 694.9 L632.6 693.7 L632.3 692.4 L631.9 691.2 L631.6 689.9 L631.2 688.7 L630.9 687.5 L630.6 686.3 L630.3 685.1 L630.0 683.9 L629.7 682.8 L629.4 681.7 L629.1 680.6 L628.9 679.5 L628.6 678.5 L628.4 677.4 L628.1 676.5 L627.9 675.5 L627.7 674.6 L627.5 673.7 L627.3 672.9 L627.1 672.1 L626.9 671.3 L626.7 670.6 L626.7 670.6 L626.3 668.7 L625.8 666.7 L625.4 664.8 L625.0 662.8 L624.5 660.7 L624.1 658.7 L623.6 656.7 L623.2 654.6 L622.8 652.5 L622.4 650.4 L622.0 648.3 L621.7 646.2 L621.3 644.1 L621.0 642.0 L620.7 639.9 L620.4 637.8 L620.1 635.6 L619.9 633.5 L619.7 631.4 L619.5 629.3 L619.3 627.2 L619.2 625.1 L619.1 623.0 L619.1 620.9 L619.1 618.9 L619.2 616.8 L619.3 614.8 L619.4 612.8 L619.6 610.8 L619.8 608.8 L620.1 606.8 L620.4 604.9 L620.8 603.0 L621.3 601.1 L621.8 599.3 L622.3 597.5 L623.0 595.7 L623.7 593.9 L624.4 592.2 L625.3 590.6 L626.2 588.9 L627.1 587.3 L628.2 585.8 L629.3 584.3 L630.5 582.8 L631.8 581.4 L633.2 580.1 L634.6 578.8 L636.1 577.5 L637.7 576.3 L639.4 575.2 L641.2 574.1 L643.1 573.0 L645.1 572.1 L647.2 571.2 L649.4 570.3 L651.6 569.6 L654.0 568.9 L656.5 568.2 L659.1 567.7 L659.1 567.7 Z"/><path fill="#295978" d="M1340.9 567.7 L1340.9 567.7 L1339.2 567.5 L1337.4 567.5 L1335.5 567.5 L1333.7 567.5 L1331.8 567.5 L1329.9 567.6 L1328.0 567.7 L1326.0 567.9 L1324.0 568.1 L1322.0 568.3 L1320.0 568.6 L1318.0 568.9 L1315.9 569.2 L1313.9 569.5 L1311.8 569.9 L1309.7 570.3 L1307.6 570.8 L1305.5 571.2 L1303.4 571.7 L1301.3 572.2 L1299.1 572.8 L1297.0 573.3 L1294.8 573.9 L1292.7 574.6 L1290.5 575.2 L1288.4 575.9 L1286.2 576.5 L1284.1 577.2 L1281.9 578.0 L1279.8 578.7 L1277.6 579.5 L1275.5 580.2 L1273.4 581.0 L1271.2 581.8 L1269.1 582.6 L1267.0 583.5 L1264.9 584.3 L1262.8 585.2 L1260.8 586.1 L1258.7 587.0 L1256.7 587.9 L1254.7 588.8 L1252.7 589.7 L1250.7 590.6 L1248.7 591.5 L1246.8 592.5 L1244.9 593.4 L1243.0 594.4 L1241.1 595.3 L1239.3 596.3 L1237.5 597.3 L1235.7 598.2 L1233.9 599.2 L1232.2 600.2 L1230.5 601.1 L1228.8 602.1 L1227.2 603.1 L1225.6 604.0 L1224.1 605.0 L1222.6 605.9 L1222.6 605.9 L1222.2 606.2 L1221.9 606.4 L1221.6 606.6 L1221.3 606.9 L1221.0 607.1 L1220.7 607.4 L1220.4 607.6 L1220.1 607.9 L1219.8 608.2 L1219.5 608.4 L1219.3 608.7 L1219.0 609.0 L1218.8 609.3 L1218.5 609.6 L1218.3 609.9 L1218.1 610.2 L1217.9 610.5 L1217.7 610.8 L1217.5 611.1 L1217.3 611.4 L1217.1 611.7 L1217.0 612.1 L1216.8 612.4 L1216.7 612.7 L1216.5 613.1 L1216.4 613.4 L1216.3 613.7 L1216.2 614.1 L1216.1 614.4 L1216.1 614.7 L1216.0 615.1 L1215.9 615.4 L1215.9 615.8 L1215.9 616.1 L1215.9 616.5 L1215.9 616.8 L1215.9 617.2 L1215.9 617.5 L1215.9 617.8 L1216.0 618.2 L1216.1 618.5 L1216.2 618.9 L1216.2 619.2 L1216.4 619.6 L1216.5 619.9 L1216.6 620.3 L1216.8 620.6 L1216.9 620.9 L1217.1 621.3 L1217.3 621.6 L1217.5 622.0 L1217.8 622.3 L1218.0 622.6 L1218.3 622.9 L1218.5 623.3 L1218.8 623.6 L1219.1 623.9 L1219.5 624.2 L1219.8 624.5 L1220.2 624.8 L1220.2 624.8 L1220.7 625.3 L1221.3 625.7 L1221.8 626.2 L1222.4 626.6 L1223.0 627.1 L1223.5 627.5 L1224.1 628.0 L1224.6 628.4 L1225.2 628.9 L1225.8 629.3 L1226.4 629.7 L1226.9 630.2 L1227.5 630.6 L1228.1 631.0 L1228.6 631.5 L1229.2 631.9 L1229.8 632.3 L1230.4 632.8 L1231.0 633.2 L1231.5 633.6 L1232.1 634.0 L1232.7 634.5 L1233.3 634.9 L1233.9 635.3 L1234.4 635.7 L1235.0 636.1 L1235.6 636.5 L1236.2 637.0 L1236.8 637.4 L1237.4 637.8 L1238.0 638.2 L1238.5 638.6 L1239.1 639.0 L1239.7 639.4 L1240.3 639.9 L1240.9 640.3 L1241.5 640.7 L1242.1 641.1 L1242.7 641.5 L1243.3 641.9 L1243.9 642.3 L1244.4 642.7 L1245.0 643.1 L1245.6 643.6 L1246.2 644.0 L1246.8 644.4 L1247.4 644.8 L1248.0 645.2 L1248.6 645.6 L1249.2 646.0 L1249.8 646.4 L1250.3 646.9 L1250.9 647.3 L1251.5 647.7 L1252.1 648.1 L1252.7 648.5 L1253.3 649.0 L1253.9 649.4 L1254.4 649.8 L1255.0 650.2 L1255.0 650.2 L1255.8 650.8 L1256.6 651.4 L1257.4 651.9 L1258.2 652.5 L1258.9 653.1 L1259.7 653.7 L1260.5 654.3 L1261.3 654.9 L1262.1 655.4 L1262.8 656.0 L1263.6 656.6 L1264.4 657.2 L1265.2 657.8 L1265.9 658.4 L1266.7 659.0 L1267.5 659.5 L1268.3 660.1 L1269.0 660.7 L1269.8 661.3 L1270.6 661.9 L1271.3 662.5 L1272.1 663.1 L1272.9 663.7 L1273.6 664.3 L1274.4 664.9 L1275.2 665.5 L1275.9 666.1 L1276.7 666.7 L1277.5 667.3 L1278.2 667.9 L1279.0 668.5 L1279.8 669.1 L1280.5 669.7 L1281.3 670.3 L1282.1 670.9 L1282.8 671.5 L1283.6 672.1 L1284.3 672.7 L1285.1 673.3 L1285.9 673.9 L1286.6 674.5 L1287.4 675.2 L1288.1 675.8 L1288.9 676.4 L1289.6 677.0 L1290.4 677.6 L1291.1 678.2 L1291.9 678.8 L1292.6 679.5 L1293.4 680.1 L1294.2 680.7 L1294.9 681.3 L1295.7 681.9 L1296.4 682.5 L1297.1 683.2 L1297.9 683.8 L1298.6 684.4 L1299.4 685.0 L1300.1 685.7 L1300.9 686.3 L1300.9 686.3 L1301.3 686.6 L1301.7 687.1 L1302.2 687.5 L1302.8 688.0 L1303.4 688.6 L1304.0 689.2 L1304.6 689.8 L1305.3 690.5 L1306.0 691.2 L1306.8 691.9 L1307.6 692.7 L1308.4 693.5 L1309.3 694.3 L1310.1 695.1 L1311.0 696.0 L1311.9 696.9 L1312.9 697.8 L1313.8 698.8 L1314.8 699.7 L1315.8 700.7 L1316.8 701.7 L1317.8 702.7 L1318.8 703.7 L1319.8 704.7 L1320.9 705.7 L1321.9 706.8 L1323.0 707.8 L1324.0 708.8 L1325.1 709.9 L1326.1 710.9 L1327.2 711.9 L1328.2 712.9 L1329.3 713.9 L1330.3 714.9 L1331.3 715.9 L1332.3 716.9 L1333.3 717.8 L1334.3 718.8 L1335.2 719.7 L1336.2 720.6 L1337.1 721.5 L1338.0 722.3 L1338.9 723.2 L1339.7 724.0 L1340.6 724.7 L1341.4 725.5 L1342.1 726.2 L1342.9 726.8 L1343.6 727.5 L1344.3 728.1 L1344.9 728.6 L1345.5 729.1 L1346.0 729.6 L1346.6 730.0 L1347.0 730.4 L1347.4 730.7 L1347.8 731.0 L1348.2 731.2 L1348.4 731.3 L1348.7 731.4 L1348.7 731.4 L1349.3 731.1 L1349.8 730.7 L1350.4 730.2 L1351.0 729.7 L1351.6 729.2 L1352.1 728.6 L1352.7 727.9 L1353.3 727.2 L1353.8 726.5 L1354.4 725.7 L1354.9 724.9 L1355.4 724.0 L1356.0 723.1 L1356.5 722.2 L1357.0 721.2 L1357.5 720.2 L1358.1 719.2 L1358.6 718.1 L1359.1 717.0 L1359.6 715.9 L1360.1 714.8 L1360.5 713.7 L1361.0 712.5 L1361.5 711.3 L1362.0 710.1 L1362.4 708.9 L1362.9 707.6 L1363.3 706.4 L1363.7 705.1 L1364.2 703.9 L1364.6 702.6 L1365.0 701.3 L1365.4 700.0 L1365.8 698.8 L1366.2 697.5 L1366.6 696.2 L1367.0 694.9 L1367.4 693.7 L1367.7 692.4 L1368.1 691.2 L1368.4 689.9 L1368.8 688.7 L1369.1 687.5 L1369.4 686.3 L1369.7 685.1 L1370.0 683.9 L1370.3 682.8 L1370.6 681.7 L1370.9 680.6 L1371.1 679.5 L1371.4 678.5 L1371.6 677.4 L1371.9 676.5 L1372.1 675.5 L1372.3 674.6 L1372.5 673.7 L1372.7 672.9 L1372.9 672.1 L1373.1 671.3 L1373.3 670.6 L1373.3 670.6 L1373.7 668.7 L1374.2 666.7 L1374.6 664.8 L1375.0 662.8 L1375.5 660.7 L1375.9 658.7 L1376.4 656.7 L1376.8 654.6 L1377.2 652.5 L1377.6 650.4 L1378.0 648.3 L1378.3 646.2 L1378.7 644.1 L1379.0 642.0 L1379.3 639.9 L1379.6 637.8 L1379.9 635.6 L1380.1 633.5 L1380.3 631.4 L1380.5 629.3 L1380.7 627.2 L1380.8 625.1 L1380.9 623.0 L1380.9 620.9 L1380.9 618.9 L1380.8 616.8 L1380.7 614.8 L1380.6 612.8 L1380.4 610.8 L1380.2 608.8 L1379.9 606.8 L1379.6 604.9 L1379.2 603.0 L1378.7 601.1 L1378.2 599.3 L1377.7 597.5 L1377.0 595.7 L1376.3 593.9 L1375.6 592.2 L1374.7 590.6 L1373.8 588.9 L1372.9 587.3 L1371.8 585.8 L1370.7 584.3 L1369.5 582.8 L1368.2 581.4 L1366.8 580.1 L1365.4 578.8 L1363.9 577.5 L1362.3 576.3 L1360.6 575.2 L1358.8 574.1 L1356.9 573.0 L1354.9 572.1 L1352.8 571.2 L1350.6 570.3 L1348.4 569.6 L1346.0 568.9 L1343.5 568.2 L1340.9 567.7 L1340.9 567.7 Z"/><path fill="#295978" fill-rule="evenodd" d="M841.4 787.5 L841.4 787.5 L842.1 787.5 L842.7 787.5 L843.4 787.4 L844.0 787.4 L844.7 787.4 L845.3 787.4 L846.0 787.4 L846.6 787.4 L847.3 787.4 L847.9 787.4 L848.6 787.4 L849.2 787.5 L849.9 787.5 L850.5 787.6 L851.1 787.6 L851.8 787.7 L852.4 787.7 L853.1 787.8 L853.7 787.9 L854.4 787.9 L855.0 788.0 L855.6 788.1 L856.3 788.2 L856.9 788.3 L857.5 788.4 L858.2 788.6 L858.8 788.7 L859.4 788.8 L860.1 789.0 L860.7 789.1 L861.3 789.3 L861.9 789.4 L862.6 789.6 L863.2 789.7 L863.8 789.9 L864.4 790.1 L865.0 790.3 L865.6 790.5 L866.3 790.7 L866.9 790.9 L867.5 791.1 L868.1 791.3 L868.7 791.5 L869.3 791.8 L869.9 792.0 L870.5 792.2 L871.1 792.5 L871.7 792.7 L872.3 793.0 L872.9 793.3 L873.4 793.5 L874.0 793.8 L874.6 794.1 L875.2 794.4 L875.8 794.7 L876.3 795.0 L876.9 795.3 L877.5 795.6 L878.0 795.9 L878.6 796.2 L878.6 796.2 L879.1 796.5 L879.5 796.8 L880.0 797.1 L880.5 797.4 L880.9 797.7 L881.4 798.0 L881.8 798.3 L882.3 798.6 L882.7 798.9 L883.2 799.2 L883.6 799.5 L884.0 799.8 L884.5 800.2 L884.9 800.5 L885.3 800.8 L885.8 801.1 L886.2 801.5 L886.6 801.8 L887.0 802.1 L887.5 802.5 L887.9 802.8 L888.3 803.2 L888.7 803.5 L889.1 803.9 L889.5 804.2 L889.9 804.6 L890.3 804.9 L890.7 805.3 L891.1 805.6 L891.5 806.0 L891.9 806.4 L892.3 806.8 L892.7 807.1 L893.1 807.5 L893.5 807.9 L893.9 808.3 L894.2 808.7 L894.6 809.1 L895.0 809.4 L895.4 809.8 L895.7 810.2 L896.1 810.6 L896.5 811.0 L896.8 811.4 L897.2 811.8 L897.5 812.3 L897.9 812.7 L898.2 813.1 L898.6 813.5 L898.9 813.9 L899.3 814.3 L899.6 814.8 L899.9 815.2 L900.3 815.6 L900.6 816.0 L900.9 816.5 L901.2 816.9 L901.6 817.4 L901.9 817.8 L902.2 818.2 L902.2 818.2 L903.0 819.3 L903.7 820.5 L904.5 821.7 L905.3 823.0 L906.1 824.3 L906.9 825.7 L907.7 827.2 L908.5 828.7 L909.4 830.2 L910.2 831.8 L911.0 833.4 L911.9 835.1 L912.7 836.8 L913.5 838.6 L914.4 840.4 L915.2 842.3 L916.1 844.1 L916.9 846.0 L917.8 848.0 L918.6 849.9 L919.5 851.9 L920.3 853.9 L921.2 855.9 L922.0 858.0 L922.9 860.0 L923.7 862.1 L924.5 864.2 L925.4 866.3 L926.2 868.4 L927.0 870.5 L927.8 872.7 L928.6 874.8 L929.4 876.9 L930.2 879.0 L930.9 881.2 L931.7 883.3 L932.4 885.4 L933.2 887.5 L933.9 889.6 L934.6 891.6 L935.3 893.7 L936.0 895.7 L936.7 897.8 L937.3 899.8 L938.0 901.7 L938.6 903.7 L939.2 905.6 L939.8 907.5 L940.4 909.3 L941.0 911.2 L941.5 912.9 L942.0 914.7 L942.5 916.4 L943.0 918.1 L943.5 919.7 L943.9 921.2 L944.3 922.8 L944.7 924.2 L945.1 925.7 L945.4 927.0 L945.4 927.0 L944.0 929.6 L942.5 932.2 L941.0 934.7 L939.5 937.2 L937.9 939.7 L936.3 942.2 L934.6 944.7 L932.9 947.1 L931.2 949.5 L929.5 951.9 L927.7 954.3 L925.9 956.7 L924.1 959.1 L922.2 961.4 L920.3 963.7 L918.4 966.1 L916.5 968.4 L914.5 970.7 L912.6 972.9 L910.6 975.2 L908.6 977.5 L906.6 979.7 L904.5 982.0 L902.5 984.2 L900.4 986.5 L898.3 988.7 L896.2 990.9 L894.1 993.1 L892.0 995.3 L889.9 997.5 L887.8 999.7 L885.7 1001.9 L883.6 1004.1 L881.5 1006.3 L879.3 1008.5 L877.2 1010.7 L875.1 1012.9 L873.0 1015.1 L870.9 1017.3 L868.8 1019.5 L866.7 1021.7 L864.6 1023.9 L862.5 1026.2 L860.5 1028.4 L858.4 1030.6 L856.4 1032.8 L854.3 1035.1 L852.3 1037.3 L850.3 1039.6 L848.3 1041.8 L846.4 1044.1 L844.4 1046.4 L842.5 1048.6 L840.6 1051.0 L838.8 1053.3 L836.9 1055.6 L835.1 1057.9 L833.3 1060.3 L831.6 1062.6 L829.8 1065.0 L829.8 1065.0 L828.5 1066.9 L827.3 1068.7 L826.1 1070.6 L824.9 1072.5 L823.8 1074.4 L822.7 1076.3 L821.7 1078.2 L820.7 1080.1 L819.7 1082.0 L818.8 1083.9 L818.0 1085.9 L817.2 1087.8 L816.4 1089.7 L815.7 1091.7 L815.0 1093.6 L814.4 1095.6 L813.8 1097.5 L813.3 1099.5 L812.8 1101.5 L812.3 1103.4 L811.9 1105.4 L811.6 1107.4 L811.3 1109.3 L811.0 1111.3 L810.8 1113.3 L810.6 1115.2 L810.5 1117.2 L810.4 1119.2 L810.4 1121.2 L810.4 1123.1 L810.5 1125.1 L810.6 1127.1 L810.8 1129.0 L811.0 1131.0 L811.2 1132.9 L811.5 1134.9 L811.9 1136.8 L812.3 1138.8 L812.7 1140.7 L813.2 1142.7 L813.7 1144.6 L814.3 1146.5 L814.9 1148.5 L815.6 1150.4 L816.4 1152.3 L817.1 1154.2 L817.9 1156.1 L818.8 1158.0 L819.7 1159.9 L820.7 1161.7 L821.7 1163.6 L822.8 1165.5 L823.9 1167.3 L825.0 1169.1 L826.2 1171.0 L827.5 1172.8 L828.8 1174.6 L830.1 1176.4 L831.5 1178.2 L833.0 1179.9 L833.0 1179.9 L832.2 1179.6 L831.4 1179.3 L830.7 1179.0 L829.9 1178.6 L829.1 1178.3 L828.3 1178.0 L827.4 1177.7 L826.6 1177.3 L825.8 1177.0 L824.9 1176.7 L824.1 1176.4 L823.2 1176.1 L822.4 1175.7 L821.5 1175.4 L820.6 1175.1 L819.7 1174.8 L818.8 1174.5 L817.9 1174.2 L817.0 1173.8 L816.1 1173.5 L815.2 1173.2 L814.3 1172.9 L813.4 1172.6 L812.5 1172.2 L811.6 1171.9 L810.6 1171.6 L809.7 1171.3 L808.8 1171.0 L807.9 1170.7 L806.9 1170.3 L806.0 1170.0 L805.1 1169.7 L804.1 1169.4 L803.2 1169.1 L802.3 1168.7 L801.3 1168.4 L800.4 1168.1 L799.4 1167.8 L798.5 1167.5 L797.6 1167.1 L796.7 1166.8 L795.7 1166.5 L794.8 1166.2 L793.9 1165.9 L793.0 1165.5 L792.1 1165.2 L791.1 1164.9 L790.2 1164.6 L789.3 1164.2 L788.4 1163.9 L787.5 1163.6 L786.7 1163.2 L785.8 1162.9 L784.9 1162.6 L784.0 1162.2 L783.2 1161.9 L782.3 1161.6 L781.5 1161.2 L780.6 1160.9 L779.8 1160.6 L779.8 1160.6 L778.2 1159.9 L776.6 1159.3 L775.1 1158.6 L773.5 1158.0 L772.0 1157.3 L770.4 1156.7 L768.9 1156.0 L767.4 1155.4 L765.9 1154.7 L764.3 1154.1 L762.8 1153.4 L761.3 1152.8 L759.8 1152.1 L758.3 1151.5 L756.8 1150.8 L755.4 1150.1 L753.9 1149.5 L752.4 1148.8 L750.9 1148.1 L749.5 1147.5 L748.0 1146.8 L746.5 1146.1 L745.1 1145.4 L743.6 1144.8 L742.2 1144.1 L740.7 1143.4 L739.3 1142.7 L737.8 1142.0 L736.4 1141.3 L735.0 1140.6 L733.5 1139.9 L732.1 1139.2 L730.6 1138.5 L729.2 1137.8 L727.8 1137.1 L726.3 1136.4 L724.9 1135.7 L723.5 1135.0 L722.0 1134.2 L720.6 1133.5 L719.1 1132.8 L717.7 1132.0 L716.3 1131.3 L714.8 1130.6 L713.4 1129.8 L711.9 1129.1 L710.5 1128.3 L709.1 1127.5 L707.6 1126.8 L706.1 1126.0 L704.7 1125.2 L703.2 1124.5 L701.8 1123.7 L700.3 1122.9 L698.8 1122.1 L697.4 1121.3 L695.9 1120.5 L694.4 1119.7 L692.9 1118.9 L691.4 1118.1 L691.4 1118.1 L688.7 1116.5 L686.0 1114.9 L683.4 1113.3 L680.7 1111.7 L678.1 1110.1 L675.5 1108.5 L672.8 1106.9 L670.2 1105.3 L667.6 1103.6 L665.0 1102.0 L662.5 1100.3 L659.9 1098.7 L657.3 1097.0 L654.8 1095.3 L652.3 1093.7 L649.7 1092.0 L647.2 1090.3 L644.7 1088.6 L642.2 1086.8 L639.7 1085.1 L637.3 1083.4 L634.8 1081.6 L632.3 1079.9 L629.9 1078.1 L627.4 1076.3 L625.0 1074.5 L622.6 1072.7 L620.2 1070.9 L617.8 1069.1 L615.4 1067.3 L613.0 1065.4 L610.6 1063.6 L608.2 1061.7 L605.9 1059.9 L603.5 1058.0 L601.2 1056.1 L598.8 1054.2 L596.5 1052.2 L594.2 1050.3 L591.9 1048.4 L589.6 1046.4 L587.3 1044.4 L585.0 1042.4 L582.7 1040.4 L580.4 1038.4 L578.1 1036.4 L575.9 1034.4 L573.6 1032.3 L571.4 1030.2 L569.1 1028.2 L566.9 1026.1 L564.6 1024.0 L562.4 1021.8 L560.2 1019.7 L558.0 1017.5 L555.8 1015.4 L553.6 1013.2 L551.4 1011.0 L549.2 1008.8 L547.0 1006.5 L547.0 1006.5 L546.3 1005.8 L545.6 1005.1 L544.9 1004.4 L544.3 1003.7 L543.6 1002.9 L542.9 1002.2 L542.2 1001.4 L541.5 1000.6 L540.8 999.9 L540.1 999.1 L539.4 998.3 L538.7 997.5 L538.0 996.7 L537.3 995.9 L536.6 995.0 L535.9 994.2 L535.2 993.4 L534.5 992.5 L533.7 991.7 L533.0 990.9 L532.3 990.0 L531.6 989.2 L530.9 988.3 L530.2 987.5 L529.5 986.6 L528.8 985.8 L528.1 984.9 L527.3 984.1 L526.6 983.2 L525.9 982.4 L525.2 981.5 L524.5 980.7 L523.8 979.8 L523.1 979.0 L522.4 978.1 L521.6 977.3 L520.9 976.5 L520.2 975.7 L519.5 974.8 L518.8 974.0 L518.1 973.2 L517.4 972.4 L516.7 971.6 L516.0 970.8 L515.3 970.1 L514.6 969.3 L513.9 968.5 L513.2 967.8 L512.5 967.1 L511.8 966.3 L511.1 965.6 L510.4 964.9 L509.7 964.2 L509.1 963.5 L508.4 962.9 L507.7 962.2 L507.0 961.6 L506.3 960.9 L505.7 960.3 L505.0 959.7 L505.0 959.7 L505.5 959.4 L505.9 959.1 L506.4 958.7 L506.9 958.4 L507.3 958.1 L507.8 957.7 L508.3 957.4 L508.7 957.1 L509.2 956.7 L509.7 956.4 L510.1 956.0 L510.6 955.7 L511.1 955.3 L511.6 954.9 L512.0 954.6 L512.5 954.2 L513.0 953.9 L513.4 953.5 L513.9 953.1 L514.4 952.7 L514.9 952.4 L515.3 952.0 L515.8 951.6 L516.3 951.2 L516.8 950.9 L517.2 950.5 L517.7 950.1 L518.2 949.7 L518.7 949.3 L519.1 949.0 L519.6 948.6 L520.1 948.2 L520.5 947.8 L521.0 947.4 L521.5 947.0 L521.9 946.6 L522.4 946.3 L522.9 945.9 L523.3 945.5 L523.8 945.1 L524.3 944.7 L524.7 944.3 L525.2 943.9 L525.7 943.6 L526.1 943.2 L526.6 942.8 L527.0 942.4 L527.5 942.0 L527.9 941.7 L528.4 941.3 L528.9 940.9 L529.3 940.5 L529.8 940.1 L530.2 939.8 L530.6 939.4 L531.1 939.0 L531.5 938.7 L532.0 938.3 L532.4 937.9 L532.9 937.6 L532.9 937.6 L533.6 937.0 L534.3 936.4 L535.0 935.8 L535.8 935.2 L536.5 934.6 L537.3 934.0 L538.0 933.4 L538.8 932.8 L539.5 932.2 L540.3 931.6 L541.0 930.9 L541.8 930.3 L542.6 929.7 L543.3 929.1 L544.1 928.5 L544.9 927.9 L545.6 927.3 L546.4 926.7 L547.2 926.1 L548.0 925.5 L548.8 924.8 L549.5 924.2 L550.3 923.6 L551.1 923.0 L551.9 922.4 L552.7 921.8 L553.5 921.2 L554.3 920.6 L555.0 920.0 L555.8 919.4 L556.6 918.8 L557.4 918.2 L558.2 917.6 L559.0 917.0 L559.8 916.4 L560.6 915.8 L561.4 915.2 L562.2 914.6 L563.0 914.0 L563.8 913.4 L564.6 912.8 L565.4 912.2 L566.1 911.6 L566.9 911.1 L567.7 910.5 L568.5 909.9 L569.3 909.3 L570.1 908.7 L570.9 908.2 L571.7 907.6 L572.4 907.0 L573.2 906.5 L574.0 905.9 L574.8 905.4 L575.6 904.8 L576.3 904.2 L577.1 903.7 L577.9 903.1 L578.6 902.6 L579.4 902.1 L579.4 902.1 L582.4 900.0 L585.5 897.8 L588.7 895.7 L592.1 893.5 L595.5 891.2 L599.0 888.9 L602.7 886.6 L606.4 884.3 L610.3 881.9 L614.2 879.5 L618.2 877.1 L622.3 874.7 L626.5 872.2 L630.7 869.8 L635.0 867.3 L639.4 864.8 L643.9 862.4 L648.4 859.9 L653.0 857.4 L657.6 854.9 L662.2 852.4 L666.9 849.9 L671.7 847.5 L676.5 845.0 L681.3 842.6 L686.1 840.2 L691.0 837.8 L695.9 835.4 L700.8 833.1 L705.7 830.8 L710.7 828.5 L715.6 826.2 L720.6 824.0 L725.5 821.9 L730.5 819.7 L735.4 817.6 L740.3 815.6 L745.2 813.6 L750.1 811.7 L755.0 809.8 L759.8 807.9 L764.6 806.2 L769.4 804.5 L774.1 802.8 L778.8 801.3 L783.4 799.7 L788.0 798.3 L792.5 797.0 L797.0 795.7 L801.4 794.5 L805.8 793.4 L810.1 792.3 L814.3 791.4 L818.4 790.6 L822.5 789.8 L826.5 789.2 L830.4 788.6 L834.1 788.1 L837.8 787.8 L841.4 787.5 L841.4 787.5 Z M837.0 848.2 L837.0 848.2 L837.7 848.1 L838.4 848.0 L839.1 847.9 L839.8 847.8 L840.5 847.7 L841.2 847.7 L841.9 847.6 L842.6 847.6 L843.3 847.6 L844.0 847.6 L844.8 847.6 L845.5 847.6 L846.2 847.6 L846.9 847.7 L847.6 847.7 L848.3 847.8 L849.0 847.9 L849.7 848.0 L850.3 848.1 L851.0 848.2 L851.7 848.3 L852.4 848.4 L853.1 848.6 L853.8 848.8 L854.4 848.9 L855.1 849.1 L855.8 849.3 L856.4 849.5 L857.1 849.7 L857.8 850.0 L858.4 850.2 L859.1 850.5 L859.7 850.7 L860.3 851.0 L861.0 851.3 L861.6 851.6 L862.2 851.9 L862.9 852.2 L863.5 852.6 L864.1 852.9 L864.7 853.3 L865.3 853.6 L865.9 854.0 L866.5 854.4 L867.0 854.8 L867.6 855.2 L868.2 855.6 L868.7 856.1 L869.3 856.5 L869.8 856.9 L870.4 857.4 L870.9 857.9 L871.4 858.4 L871.9 858.8 L872.4 859.3 L872.9 859.9 L873.4 860.4 L873.9 860.9 L874.4 861.4 L874.8 862.0 L874.8 862.0 L875.3 862.6 L875.7 863.1 L876.2 863.7 L876.6 864.3 L877.0 864.8 L877.4 865.4 L877.8 866.0 L878.2 866.6 L878.5 867.2 L878.9 867.9 L879.2 868.5 L879.6 869.1 L879.9 869.7 L880.2 870.4 L880.5 871.0 L880.8 871.6 L881.0 872.3 L881.3 872.9 L881.6 873.6 L881.8 874.2 L882.0 874.9 L882.2 875.6 L882.4 876.2 L882.6 876.9 L882.8 877.6 L883.0 878.3 L883.1 878.9 L883.3 879.6 L883.4 880.3 L883.5 881.0 L883.6 881.7 L883.7 882.4 L883.8 883.1 L883.9 883.7 L884.0 884.4 L884.0 885.1 L884.0 885.8 L884.1 886.5 L884.1 887.2 L884.1 887.9 L884.1 888.6 L884.0 889.3 L884.0 890.0 L884.0 890.7 L883.9 891.4 L883.8 892.1 L883.7 892.8 L883.6 893.5 L883.5 894.2 L883.4 894.9 L883.3 895.6 L883.1 896.3 L882.9 897.0 L882.8 897.7 L882.6 898.4 L882.4 899.0 L882.2 899.7 L882.0 900.4 L881.7 901.1 L881.5 901.8 L881.5 901.8 L881.2 902.4 L880.9 903.1 L880.6 903.8 L880.4 904.4 L880.0 905.1 L879.7 905.7 L879.4 906.3 L879.1 906.9 L878.7 907.6 L878.4 908.2 L878.0 908.8 L877.6 909.4 L877.2 910.0 L876.8 910.5 L876.4 911.1 L876.0 911.7 L875.6 912.2 L875.1 912.8 L874.7 913.3 L874.2 913.8 L873.8 914.4 L873.3 914.9 L872.8 915.4 L872.3 915.9 L871.8 916.4 L871.3 916.8 L870.8 917.3 L870.3 917.8 L869.7 918.2 L869.2 918.7 L868.7 919.1 L868.1 919.5 L867.5 919.9 L867.0 920.3 L866.4 920.7 L865.8 921.1 L865.2 921.5 L864.6 921.9 L864.0 922.2 L863.4 922.6 L862.8 922.9 L862.2 923.2 L861.6 923.5 L860.9 923.8 L860.3 924.1 L859.6 924.4 L859.0 924.7 L858.3 924.9 L857.7 925.2 L857.0 925.4 L856.3 925.6 L855.7 925.8 L855.0 926.0 L854.3 926.2 L853.6 926.4 L852.9 926.5 L852.2 926.7 L851.5 926.8 L850.8 927.0 L850.1 927.1 L850.1 927.1 L849.0 927.2 L847.9 927.4 L846.9 927.4 L845.8 927.5 L844.7 927.5 L843.7 927.5 L842.6 927.5 L841.6 927.5 L840.5 927.4 L839.5 927.3 L838.4 927.1 L837.4 927.0 L836.4 926.8 L835.4 926.6 L834.4 926.3 L833.4 926.1 L832.4 925.8 L831.4 925.5 L830.5 925.1 L829.5 924.8 L828.6 924.4 L827.6 924.0 L826.7 923.6 L825.8 923.1 L824.9 922.6 L824.0 922.1 L823.1 921.6 L822.3 921.1 L821.4 920.5 L820.6 919.9 L819.8 919.3 L819.0 918.7 L818.2 918.0 L817.5 917.4 L816.7 916.7 L816.0 916.0 L815.3 915.3 L814.6 914.5 L813.9 913.8 L813.2 913.0 L812.6 912.2 L812.0 911.4 L811.4 910.5 L810.8 909.7 L810.2 908.8 L809.7 907.9 L809.2 907.1 L808.7 906.1 L808.2 905.2 L807.8 904.3 L807.3 903.3 L806.9 902.4 L806.6 901.4 L806.2 900.4 L805.9 899.4 L805.6 898.3 L805.3 897.3 L805.1 896.3 L804.8 895.2 L804.7 894.1 L804.7 894.1 L804.5 893.0 L804.4 892.0 L804.2 890.9 L804.2 889.8 L804.1 888.8 L804.1 887.7 L804.1 886.6 L804.2 885.6 L804.2 884.5 L804.3 883.5 L804.4 882.5 L804.6 881.4 L804.7 880.4 L804.9 879.4 L805.2 878.4 L805.4 877.4 L805.7 876.4 L806.0 875.4 L806.3 874.5 L806.7 873.5 L807.0 872.6 L807.4 871.6 L807.8 870.7 L808.3 869.8 L808.7 868.9 L809.2 868.0 L809.7 867.1 L810.3 866.2 L810.8 865.4 L811.4 864.5 L812.0 863.7 L812.6 862.9 L813.2 862.1 L813.9 861.3 L814.6 860.6 L815.3 859.8 L816.0 859.1 L816.7 858.4 L817.5 857.7 L818.2 857.1 L819.0 856.4 L819.8 855.8 L820.6 855.2 L821.5 854.6 L822.3 854.0 L823.2 853.4 L824.1 852.9 L825.0 852.4 L825.9 851.9 L826.8 851.5 L827.8 851.0 L828.8 850.6 L829.7 850.2 L830.7 849.9 L831.7 849.5 L832.8 849.2 L833.8 848.9 L834.8 848.7 L835.9 848.4 L837.0 848.2 L837.0 848.2 Z"/><path fill="#295978" fill-rule="evenodd" d="M1158.6 787.5 L1158.6 787.5 L1157.9 787.5 L1157.3 787.5 L1156.6 787.4 L1156.0 787.4 L1155.3 787.4 L1154.7 787.4 L1154.0 787.4 L1153.4 787.4 L1152.7 787.4 L1152.1 787.4 L1151.4 787.4 L1150.8 787.5 L1150.1 787.5 L1149.5 787.6 L1148.9 787.6 L1148.2 787.7 L1147.6 787.7 L1146.9 787.8 L1146.3 787.9 L1145.6 787.9 L1145.0 788.0 L1144.4 788.1 L1143.7 788.2 L1143.1 788.3 L1142.5 788.4 L1141.8 788.6 L1141.2 788.7 L1140.6 788.8 L1139.9 789.0 L1139.3 789.1 L1138.7 789.3 L1138.1 789.4 L1137.4 789.6 L1136.8 789.7 L1136.2 789.9 L1135.6 790.1 L1135.0 790.3 L1134.4 790.5 L1133.7 790.7 L1133.1 790.9 L1132.5 791.1 L1131.9 791.3 L1131.3 791.5 L1130.7 791.8 L1130.1 792.0 L1129.5 792.2 L1128.9 792.5 L1128.3 792.7 L1127.7 793.0 L1127.1 793.3 L1126.6 793.5 L1126.0 793.8 L1125.4 794.1 L1124.8 794.4 L1124.2 794.7 L1123.7 795.0 L1123.1 795.3 L1122.5 795.6 L1122.0 795.9 L1121.4 796.2 L1121.4 796.2 L1120.9 796.5 L1120.5 796.8 L1120.0 797.1 L1119.5 797.4 L1119.1 797.7 L1118.6 798.0 L1118.2 798.3 L1117.7 798.6 L1117.3 798.9 L1116.8 799.2 L1116.4 799.5 L1116.0 799.8 L1115.5 800.2 L1115.1 800.5 L1114.7 800.8 L1114.2 801.1 L1113.8 801.5 L1113.4 801.8 L1113.0 802.1 L1112.5 802.5 L1112.1 802.8 L1111.7 803.2 L1111.3 803.5 L1110.9 803.9 L1110.5 804.2 L1110.1 804.6 L1109.7 804.9 L1109.3 805.3 L1108.9 805.6 L1108.5 806.0 L1108.1 806.4 L1107.7 806.8 L1107.3 807.1 L1106.9 807.5 L1106.5 807.9 L1106.1 808.3 L1105.8 808.7 L1105.4 809.1 L1105.0 809.4 L1104.6 809.8 L1104.3 810.2 L1103.9 810.6 L1103.5 811.0 L1103.2 811.4 L1102.8 811.8 L1102.5 812.3 L1102.1 812.7 L1101.8 813.1 L1101.4 813.5 L1101.1 813.9 L1100.7 814.3 L1100.4 814.8 L1100.1 815.2 L1099.7 815.6 L1099.4 816.0 L1099.1 816.5 L1098.8 816.9 L1098.4 817.4 L1098.1 817.8 L1097.8 818.2 L1097.8 818.2 L1097.0 819.3 L1096.3 820.5 L1095.5 821.7 L1094.7 823.0 L1093.9 824.3 L1093.1 825.7 L1092.3 827.2 L1091.5 828.7 L1090.6 830.2 L1089.8 831.8 L1089.0 833.4 L1088.1 835.1 L1087.3 836.8 L1086.5 838.6 L1085.6 840.4 L1084.8 842.3 L1083.9 844.1 L1083.1 846.0 L1082.2 848.0 L1081.4 849.9 L1080.5 851.9 L1079.7 853.9 L1078.8 855.9 L1078.0 858.0 L1077.1 860.0 L1076.3 862.1 L1075.5 864.2 L1074.6 866.3 L1073.8 868.4 L1073.0 870.5 L1072.2 872.7 L1071.4 874.8 L1070.6 876.9 L1069.8 879.0 L1069.1 881.2 L1068.3 883.3 L1067.6 885.4 L1066.8 887.5 L1066.1 889.6 L1065.4 891.6 L1064.7 893.7 L1064.0 895.7 L1063.3 897.8 L1062.7 899.8 L1062.0 901.7 L1061.4 903.7 L1060.8 905.6 L1060.2 907.5 L1059.6 909.3 L1059.0 911.2 L1058.5 912.9 L1058.0 914.7 L1057.5 916.4 L1057.0 918.1 L1056.5 919.7 L1056.1 921.2 L1055.7 922.8 L1055.3 924.2 L1054.9 925.7 L1054.6 927.0 L1054.6 927.0 L1056.0 929.6 L1057.5 932.2 L1059.0 934.7 L1060.5 937.2 L1062.1 939.7 L1063.7 942.2 L1065.4 944.7 L1067.1 947.1 L1068.8 949.5 L1070.5 951.9 L1072.3 954.3 L1074.1 956.7 L1075.9 959.1 L1077.8 961.4 L1079.7 963.7 L1081.6 966.1 L1083.5 968.4 L1085.5 970.7 L1087.4 972.9 L1089.4 975.2 L1091.4 977.5 L1093.4 979.7 L1095.5 982.0 L1097.5 984.2 L1099.6 986.5 L1101.7 988.7 L1103.8 990.9 L1105.9 993.1 L1108.0 995.3 L1110.1 997.5 L1112.2 999.7 L1114.3 1001.9 L1116.4 1004.1 L1118.5 1006.3 L1120.7 1008.5 L1122.8 1010.7 L1124.9 1012.9 L1127.0 1015.1 L1129.1 1017.3 L1131.2 1019.5 L1133.3 1021.7 L1135.4 1023.9 L1137.5 1026.2 L1139.5 1028.4 L1141.6 1030.6 L1143.6 1032.8 L1145.7 1035.1 L1147.7 1037.3 L1149.7 1039.6 L1151.7 1041.8 L1153.6 1044.1 L1155.6 1046.4 L1157.5 1048.6 L1159.4 1051.0 L1161.2 1053.3 L1163.1 1055.6 L1164.9 1057.9 L1166.7 1060.3 L1168.4 1062.6 L1170.2 1065.0 L1170.2 1065.0 L1171.5 1066.9 L1172.7 1068.7 L1173.9 1070.6 L1175.1 1072.5 L1176.2 1074.4 L1177.3 1076.3 L1178.3 1078.2 L1179.3 1080.1 L1180.3 1082.0 L1181.2 1083.9 L1182.0 1085.9 L1182.8 1087.8 L1183.6 1089.7 L1184.3 1091.7 L1185.0 1093.6 L1185.6 1095.6 L1186.2 1097.5 L1186.7 1099.5 L1187.2 1101.5 L1187.7 1103.4 L1188.1 1105.4 L1188.4 1107.4 L1188.7 1109.3 L1189.0 1111.3 L1189.2 1113.3 L1189.4 1115.2 L1189.5 1117.2 L1189.6 1119.2 L1189.6 1121.2 L1189.6 1123.1 L1189.5 1125.1 L1189.4 1127.1 L1189.2 1129.0 L1189.0 1131.0 L1188.8 1132.9 L1188.5 1134.9 L1188.1 1136.8 L1187.7 1138.8 L1187.3 1140.7 L1186.8 1142.7 L1186.3 1144.6 L1185.7 1146.5 L1185.1 1148.5 L1184.4 1150.4 L1183.6 1152.3 L1182.9 1154.2 L1182.1 1156.1 L1181.2 1158.0 L1180.3 1159.9 L1179.3 1161.7 L1178.3 1163.6 L1177.2 1165.5 L1176.1 1167.3 L1175.0 1169.1 L1173.8 1171.0 L1172.5 1172.8 L1171.2 1174.6 L1169.9 1176.4 L1168.5 1178.2 L1167.0 1179.9 L1167.0 1179.9 L1167.8 1179.6 L1168.6 1179.3 L1169.3 1179.0 L1170.1 1178.6 L1170.9 1178.3 L1171.7 1178.0 L1172.6 1177.7 L1173.4 1177.3 L1174.2 1177.0 L1175.1 1176.7 L1175.9 1176.4 L1176.8 1176.1 L1177.6 1175.7 L1178.5 1175.4 L1179.4 1175.1 L1180.3 1174.8 L1181.2 1174.5 L1182.1 1174.2 L1183.0 1173.8 L1183.9 1173.5 L1184.8 1173.2 L1185.7 1172.9 L1186.6 1172.6 L1187.5 1172.2 L1188.4 1171.9 L1189.4 1171.6 L1190.3 1171.3 L1191.2 1171.0 L1192.1 1170.7 L1193.1 1170.3 L1194.0 1170.0 L1194.9 1169.7 L1195.9 1169.4 L1196.8 1169.1 L1197.7 1168.7 L1198.7 1168.4 L1199.6 1168.1 L1200.6 1167.8 L1201.5 1167.5 L1202.4 1167.1 L1203.3 1166.8 L1204.3 1166.5 L1205.2 1166.2 L1206.1 1165.9 L1207.0 1165.5 L1207.9 1165.2 L1208.9 1164.9 L1209.8 1164.6 L1210.7 1164.2 L1211.6 1163.9 L1212.5 1163.6 L1213.3 1163.2 L1214.2 1162.9 L1215.1 1162.6 L1216.0 1162.2 L1216.8 1161.9 L1217.7 1161.6 L1218.5 1161.2 L1219.4 1160.9 L1220.2 1160.6 L1220.2 1160.6 L1221.8 1159.9 L1223.4 1159.3 L1224.9 1158.6 L1226.5 1158.0 L1228.0 1157.3 L1229.6 1156.7 L1231.1 1156.0 L1232.6 1155.4 L1234.1 1154.7 L1235.7 1154.1 L1237.2 1153.4 L1238.7 1152.8 L1240.2 1152.1 L1241.7 1151.5 L1243.2 1150.8 L1244.6 1150.1 L1246.1 1149.5 L1247.6 1148.8 L1249.1 1148.1 L1250.5 1147.5 L1252.0 1146.8 L1253.5 1146.1 L1254.9 1145.4 L1256.4 1144.8 L1257.8 1144.1 L1259.3 1143.4 L1260.7 1142.7 L1262.2 1142.0 L1263.6 1141.3 L1265.0 1140.6 L1266.5 1139.9 L1267.9 1139.2 L1269.4 1138.5 L1270.8 1137.8 L1272.2 1137.1 L1273.7 1136.4 L1275.1 1135.7 L1276.5 1135.0 L1278.0 1134.2 L1279.4 1133.5 L1280.9 1132.8 L1282.3 1132.0 L1283.7 1131.3 L1285.2 1130.6 L1286.6 1129.8 L1288.1 1129.1 L1289.5 1128.3 L1290.9 1127.5 L1292.4 1126.8 L1293.9 1126.0 L1295.3 1125.2 L1296.8 1124.5 L1298.2 1123.7 L1299.7 1122.9 L1301.2 1122.1 L1302.6 1121.3 L1304.1 1120.5 L1305.6 1119.7 L1307.1 1118.9 L1308.6 1118.1 L1308.6 1118.1 L1311.3 1116.5 L1314.0 1114.9 L1316.6 1113.3 L1319.3 1111.7 L1321.9 1110.1 L1324.5 1108.5 L1327.2 1106.9 L1329.8 1105.3 L1332.4 1103.6 L1335.0 1102.0 L1337.5 1100.3 L1340.1 1098.7 L1342.7 1097.0 L1345.2 1095.3 L1347.7 1093.7 L1350.3 1092.0 L1352.8 1090.3 L1355.3 1088.6 L1357.8 1086.8 L1360.3 1085.1 L1362.7 1083.4 L1365.2 1081.6 L1367.7 1079.9 L1370.1 1078.1 L1372.6 1076.3 L1375.0 1074.5 L1377.4 1072.7 L1379.8 1070.9 L1382.2 1069.1 L1384.6 1067.3 L1387.0 1065.4 L1389.4 1063.6 L1391.8 1061.7 L1394.1 1059.9 L1396.5 1058.0 L1398.8 1056.1 L1401.2 1054.2 L1403.5 1052.2 L1405.8 1050.3 L1408.1 1048.4 L1410.4 1046.4 L1412.7 1044.4 L1415.0 1042.4 L1417.3 1040.4 L1419.6 1038.4 L1421.9 1036.4 L1424.1 1034.4 L1426.4 1032.3 L1428.6 1030.2 L1430.9 1028.2 L1433.1 1026.1 L1435.4 1024.0 L1437.6 1021.8 L1439.8 1019.7 L1442.0 1017.5 L1444.2 1015.4 L1446.4 1013.2 L1448.6 1011.0 L1450.8 1008.8 L1453.0 1006.5 L1453.0 1006.5 L1453.7 1005.8 L1454.4 1005.1 L1455.1 1004.4 L1455.7 1003.7 L1456.4 1002.9 L1457.1 1002.2 L1457.8 1001.4 L1458.5 1000.6 L1459.2 999.9 L1459.9 999.1 L1460.6 998.3 L1461.3 997.5 L1462.0 996.7 L1462.7 995.9 L1463.4 995.0 L1464.1 994.2 L1464.8 993.4 L1465.5 992.5 L1466.3 991.7 L1467.0 990.9 L1467.7 990.0 L1468.4 989.2 L1469.1 988.3 L1469.8 987.5 L1470.5 986.6 L1471.2 985.8 L1471.9 984.9 L1472.7 984.1 L1473.4 983.2 L1474.1 982.4 L1474.8 981.5 L1475.5 980.7 L1476.2 979.8 L1476.9 979.0 L1477.6 978.1 L1478.4 977.3 L1479.1 976.5 L1479.8 975.7 L1480.5 974.8 L1481.2 974.0 L1481.9 973.2 L1482.6 972.4 L1483.3 971.6 L1484.0 970.8 L1484.7 970.1 L1485.4 969.3 L1486.1 968.5 L1486.8 967.8 L1487.5 967.1 L1488.2 966.3 L1488.9 965.6 L1489.6 964.9 L1490.3 964.2 L1490.9 963.5 L1491.6 962.9 L1492.3 962.2 L1493.0 961.6 L1493.7 960.9 L1494.3 960.3 L1495.0 959.7 L1495.0 959.7 L1494.5 959.4 L1494.1 959.1 L1493.6 958.7 L1493.1 958.4 L1492.7 958.1 L1492.2 957.7 L1491.7 957.4 L1491.3 957.1 L1490.8 956.7 L1490.3 956.4 L1489.9 956.0 L1489.4 955.7 L1488.9 955.3 L1488.4 954.9 L1488.0 954.6 L1487.5 954.2 L1487.0 953.9 L1486.6 953.5 L1486.1 953.1 L1485.6 952.7 L1485.1 952.4 L1484.7 952.0 L1484.2 951.6 L1483.7 951.2 L1483.2 950.9 L1482.8 950.5 L1482.3 950.1 L1481.8 949.7 L1481.3 949.3 L1480.9 949.0 L1480.4 948.6 L1479.9 948.2 L1479.5 947.8 L1479.0 947.4 L1478.5 947.0 L1478.1 946.6 L1477.6 946.3 L1477.1 945.9 L1476.7 945.5 L1476.2 945.1 L1475.7 944.7 L1475.3 944.3 L1474.8 943.9 L1474.3 943.6 L1473.9 943.2 L1473.4 942.8 L1473.0 942.4 L1472.5 942.0 L1472.1 941.7 L1471.6 941.3 L1471.1 940.9 L1470.7 940.5 L1470.2 940.1 L1469.8 939.8 L1469.4 939.4 L1468.9 939.0 L1468.5 938.7 L1468.0 938.3 L1467.6 937.9 L1467.1 937.6 L1467.1 937.6 L1466.4 937.0 L1465.7 936.4 L1465.0 935.8 L1464.2 935.2 L1463.5 934.6 L1462.7 934.0 L1462.0 933.4 L1461.2 932.8 L1460.5 932.2 L1459.7 931.6 L1459.0 930.9 L1458.2 930.3 L1457.4 929.7 L1456.7 929.1 L1455.9 928.5 L1455.1 927.9 L1454.4 927.3 L1453.6 926.7 L1452.8 926.1 L1452.0 925.5 L1451.2 924.8 L1450.5 924.2 L1449.7 923.6 L1448.9 923.0 L1448.1 922.4 L1447.3 921.8 L1446.5 921.2 L1445.7 920.6 L1445.0 920.0 L1444.2 919.4 L1443.4 918.8 L1442.6 918.2 L1441.8 917.6 L1441.0 917.0 L1440.2 916.4 L1439.4 915.8 L1438.6 915.2 L1437.8 914.6 L1437.0 914.0 L1436.2 913.4 L1435.4 912.8 L1434.6 912.2 L1433.9 911.6 L1433.1 911.1 L1432.3 910.5 L1431.5 909.9 L1430.7 909.3 L1429.9 908.7 L1429.1 908.2 L1428.3 907.6 L1427.6 907.0 L1426.8 906.5 L1426.0 905.9 L1425.2 905.4 L1424.4 904.8 L1423.7 904.2 L1422.9 903.7 L1422.1 903.1 L1421.4 902.6 L1420.6 902.1 L1420.6 902.1 L1417.6 900.0 L1414.5 897.8 L1411.3 895.7 L1407.9 893.5 L1404.5 891.2 L1401.0 888.9 L1397.3 886.6 L1393.6 884.3 L1389.7 881.9 L1385.8 879.5 L1381.8 877.1 L1377.7 874.7 L1373.5 872.2 L1369.3 869.8 L1365.0 867.3 L1360.6 864.8 L1356.1 862.4 L1351.6 859.9 L1347.0 857.4 L1342.4 854.9 L1337.8 852.4 L1333.1 849.9 L1328.3 847.5 L1323.5 845.0 L1318.7 842.6 L1313.9 840.2 L1309.0 837.8 L1304.1 835.4 L1299.2 833.1 L1294.3 830.8 L1289.3 828.5 L1284.4 826.2 L1279.4 824.0 L1274.5 821.9 L1269.5 819.7 L1264.6 817.6 L1259.7 815.6 L1254.8 813.6 L1249.9 811.7 L1245.0 809.8 L1240.2 807.9 L1235.4 806.2 L1230.6 804.5 L1225.9 802.8 L1221.2 801.3 L1216.6 799.7 L1212.0 798.3 L1207.5 797.0 L1203.0 795.7 L1198.6 794.5 L1194.2 793.4 L1189.9 792.3 L1185.7 791.4 L1181.6 790.6 L1177.5 789.8 L1173.5 789.2 L1169.6 788.6 L1165.9 788.1 L1162.2 787.8 L1158.6 787.5 L1158.6 787.5 Z M1163.0 848.2 L1163.0 848.2 L1162.3 848.1 L1161.6 848.0 L1160.9 847.9 L1160.2 847.8 L1159.5 847.7 L1158.8 847.7 L1158.1 847.6 L1157.4 847.6 L1156.7 847.6 L1156.0 847.6 L1155.2 847.6 L1154.5 847.6 L1153.8 847.6 L1153.1 847.7 L1152.4 847.7 L1151.7 847.8 L1151.0 847.9 L1150.3 848.0 L1149.7 848.1 L1149.0 848.2 L1148.3 848.3 L1147.6 848.4 L1146.9 848.6 L1146.2 848.8 L1145.6 848.9 L1144.9 849.1 L1144.2 849.3 L1143.6 849.5 L1142.9 849.7 L1142.2 850.0 L1141.6 850.2 L1140.9 850.5 L1140.3 850.7 L1139.7 851.0 L1139.0 851.3 L1138.4 851.6 L1137.8 851.9 L1137.1 852.2 L1136.5 852.6 L1135.9 852.9 L1135.3 853.3 L1134.7 853.6 L1134.1 854.0 L1133.5 854.4 L1133.0 854.8 L1132.4 855.2 L1131.8 855.6 L1131.3 856.1 L1130.7 856.5 L1130.2 856.9 L1129.6 857.4 L1129.1 857.9 L1128.6 858.4 L1128.1 858.8 L1127.6 859.3 L1127.1 859.9 L1126.6 860.4 L1126.1 860.9 L1125.6 861.4 L1125.2 862.0 L1125.2 862.0 L1124.7 862.6 L1124.3 863.1 L1123.8 863.7 L1123.4 864.3 L1123.0 864.8 L1122.6 865.4 L1122.2 866.0 L1121.8 866.6 L1121.5 867.2 L1121.1 867.9 L1120.8 868.5 L1120.4 869.1 L1120.1 869.7 L1119.8 870.4 L1119.5 871.0 L1119.2 871.6 L1119.0 872.3 L1118.7 872.9 L1118.4 873.6 L1118.2 874.2 L1118.0 874.9 L1117.8 875.6 L1117.6 876.2 L1117.4 876.9 L1117.2 877.6 L1117.0 878.3 L1116.9 878.9 L1116.7 879.6 L1116.6 880.3 L1116.5 881.0 L1116.4 881.7 L1116.3 882.4 L1116.2 883.1 L1116.1 883.7 L1116.0 884.4 L1116.0 885.1 L1116.0 885.8 L1115.9 886.5 L1115.9 887.2 L1115.9 887.9 L1115.9 888.6 L1116.0 889.3 L1116.0 890.0 L1116.0 890.7 L1116.1 891.4 L1116.2 892.1 L1116.3 892.8 L1116.4 893.5 L1116.5 894.2 L1116.6 894.9 L1116.7 895.6 L1116.9 896.3 L1117.1 897.0 L1117.2 897.7 L1117.4 898.4 L1117.6 899.0 L1117.8 899.7 L1118.0 900.4 L1118.3 901.1 L1118.5 901.8 L1118.5 901.8 L1118.8 902.4 L1119.1 903.1 L1119.4 903.8 L1119.6 904.4 L1120.0 905.1 L1120.3 905.7 L1120.6 906.3 L1120.9 906.9 L1121.3 907.6 L1121.6 908.2 L1122.0 908.8 L1122.4 909.4 L1122.8 910.0 L1123.2 910.5 L1123.6 911.1 L1124.0 911.7 L1124.4 912.2 L1124.9 912.8 L1125.3 913.3 L1125.8 913.8 L1126.2 914.4 L1126.7 914.9 L1127.2 915.4 L1127.7 915.9 L1128.2 916.4 L1128.7 916.8 L1129.2 917.3 L1129.7 917.8 L1130.3 918.2 L1130.8 918.7 L1131.3 919.1 L1131.9 919.5 L1132.5 919.9 L1133.0 920.3 L1133.6 920.7 L1134.2 921.1 L1134.8 921.5 L1135.4 921.9 L1136.0 922.2 L1136.6 922.6 L1137.2 922.9 L1137.8 923.2 L1138.4 923.5 L1139.1 923.8 L1139.7 924.1 L1140.4 924.4 L1141.0 924.7 L1141.7 924.9 L1142.3 925.2 L1143.0 925.4 L1143.7 925.6 L1144.3 925.8 L1145.0 926.0 L1145.7 926.2 L1146.4 926.4 L1147.1 926.5 L1147.8 926.7 L1148.5 926.8 L1149.2 927.0 L1149.9 927.1 L1149.9 927.1 L1151.0 927.2 L1152.1 927.4 L1153.1 927.4 L1154.2 927.5 L1155.3 927.5 L1156.3 927.5 L1157.4 927.5 L1158.4 927.5 L1159.5 927.4 L1160.5 927.3 L1161.6 927.1 L1162.6 927.0 L1163.6 926.8 L1164.6 926.6 L1165.6 926.3 L1166.6 926.1 L1167.6 925.8 L1168.6 925.5 L1169.5 925.1 L1170.5 924.8 L1171.4 924.4 L1172.4 924.0 L1173.3 923.6 L1174.2 923.1 L1175.1 922.6 L1176.0 922.1 L1176.9 921.6 L1177.7 921.1 L1178.6 920.5 L1179.4 919.9 L1180.2 919.3 L1181.0 918.7 L1181.8 918.0 L1182.5 917.4 L1183.3 916.7 L1184.0 916.0 L1184.7 915.3 L1185.4 914.5 L1186.1 913.8 L1186.8 913.0 L1187.4 912.2 L1188.0 911.4 L1188.6 910.5 L1189.2 909.7 L1189.8 908.8 L1190.3 907.9 L1190.8 907.1 L1191.3 906.1 L1191.8 905.2 L1192.2 904.3 L1192.7 903.3 L1193.1 902.4 L1193.4 901.4 L1193.8 900.4 L1194.1 899.4 L1194.4 898.3 L1194.7 897.3 L1194.9 896.3 L1195.2 895.2 L1195.3 894.1 L1195.3 894.1 L1195.5 893.0 L1195.6 892.0 L1195.8 890.9 L1195.8 889.8 L1195.9 888.8 L1195.9 887.7 L1195.9 886.6 L1195.8 885.6 L1195.8 884.5 L1195.7 883.5 L1195.6 882.5 L1195.4 881.4 L1195.3 880.4 L1195.1 879.4 L1194.8 878.4 L1194.6 877.4 L1194.3 876.4 L1194.0 875.4 L1193.7 874.5 L1193.3 873.5 L1193.0 872.6 L1192.6 871.6 L1192.2 870.7 L1191.7 869.8 L1191.3 868.9 L1190.8 868.0 L1190.3 867.1 L1189.7 866.2 L1189.2 865.4 L1188.6 864.5 L1188.0 863.7 L1187.4 862.9 L1186.8 862.1 L1186.1 861.3 L1185.4 860.6 L1184.7 859.8 L1184.0 859.1 L1183.3 858.4 L1182.5 857.7 L1181.8 857.1 L1181.0 856.4 L1180.2 855.8 L1179.4 855.2 L1178.5 854.6 L1177.7 854.0 L1176.8 853.4 L1175.9 852.9 L1175.0 852.4 L1174.1 851.9 L1173.2 851.5 L1172.2 851.0 L1171.2 850.6 L1170.3 850.2 L1169.3 849.9 L1168.3 849.5 L1167.2 849.2 L1166.2 848.9 L1165.2 848.7 L1164.1 848.4 L1163.0 848.2 L1163.0 848.2 Z"/><path fill="#295978" d="M962.0 1106.5 L962.0 1106.5 L963.6 1105.9 L965.2 1105.4 L966.8 1104.8 L968.4 1104.3 L969.9 1103.8 L971.4 1103.4 L972.9 1102.9 L974.3 1102.5 L975.7 1102.0 L977.1 1101.6 L978.4 1101.3 L979.8 1100.9 L981.1 1100.5 L982.4 1100.2 L983.7 1099.9 L984.9 1099.6 L986.1 1099.3 L987.4 1099.1 L988.6 1098.8 L989.8 1098.6 L990.9 1098.4 L992.1 1098.2 L993.3 1098.1 L994.4 1097.9 L995.6 1097.8 L996.7 1097.7 L997.8 1097.6 L999.0 1097.6 L1004.0 1097.5 L1004.0 1214.4 L998.6 1214.3 L996.5 1214.1 L994.4 1213.8 L992.4 1213.5 L990.3 1213.0 L988.3 1212.5 L986.3 1211.8 L984.3 1211.1 L982.3 1210.4 L980.3 1209.5 L978.4 1208.6 L976.4 1207.6 L974.5 1206.6 L972.6 1205.5 L970.8 1204.3 L968.9 1203.1 L967.1 1201.8 L965.3 1200.4 L963.6 1199.1 L961.9 1197.6 L960.2 1196.1 L958.5 1194.6 L956.9 1193.0 L955.4 1191.4 L953.8 1189.7 L952.4 1188.0 L950.9 1186.3 L949.5 1184.5 L948.2 1182.7 L946.9 1180.9 L945.6 1179.0 L944.4 1177.1 L943.3 1175.2 L942.2 1173.3 L941.2 1171.4 L940.2 1169.4 L939.3 1167.5 L938.4 1165.5 L937.6 1163.5 L936.9 1161.5 L936.2 1159.5 L935.6 1157.5 L935.1 1155.5 L934.7 1153.5 L934.3 1151.5 L934.0 1149.5 L934.0 1149.5 L933.8 1148.4 L933.8 1147.4 L933.7 1146.4 L933.7 1145.4 L933.7 1144.4 L933.7 1143.4 L933.7 1142.5 L933.8 1141.6 L933.9 1140.6 L934.1 1139.7 L934.3 1138.8 L934.4 1138.0 L934.7 1137.1 L934.9 1136.3 L935.2 1135.4 L935.5 1134.6 L935.8 1133.8 L936.1 1133.0 L936.5 1132.2 L936.9 1131.4 L937.3 1130.7 L937.7 1129.9 L938.1 1129.2 L938.6 1128.4 L939.0 1127.7 L939.5 1127.0 L940.0 1126.3 L940.6 1125.6 L941.1 1124.9 L941.7 1124.2 L942.2 1123.6 L942.8 1122.9 L943.4 1122.3 L944.0 1121.6 L944.6 1121.0 L945.2 1120.4 L945.9 1119.7 L946.5 1119.1 L947.2 1118.5 L947.9 1117.9 L948.5 1117.3 L949.2 1116.7 L949.9 1116.1 L950.6 1115.5 L951.3 1114.9 L952.0 1114.4 L952.7 1113.8 L953.4 1113.2 L954.1 1112.6 L954.8 1112.1 L955.6 1111.5 L956.3 1110.9 L957.0 1110.4 L957.7 1109.8 L958.4 1109.3 L959.1 1108.7 L959.8 1108.2 L960.6 1107.6 L961.3 1107.0 L962.0 1106.5 L962.0 1106.5 Z"/><path fill="#295978" d="M1038.0 1106.5 L1038.0 1106.5 L1036.4 1105.9 L1034.8 1105.4 L1033.2 1104.8 L1031.6 1104.3 L1030.1 1103.8 L1028.6 1103.4 L1027.1 1102.9 L1025.7 1102.5 L1024.3 1102.0 L1022.9 1101.6 L1021.6 1101.3 L1020.2 1100.9 L1018.9 1100.5 L1017.6 1100.2 L1016.3 1099.9 L1015.1 1099.6 L1013.9 1099.3 L1012.6 1099.1 L1011.4 1098.8 L1010.2 1098.6 L1009.1 1098.4 L1007.9 1098.2 L1006.7 1098.1 L1005.6 1097.9 L1004.4 1097.8 L1003.3 1097.7 L1002.2 1097.6 L1001.0 1097.6 L996.0 1097.5 L996.0 1214.4 L1001.4 1214.3 L1003.5 1214.1 L1005.6 1213.8 L1007.6 1213.5 L1009.7 1213.0 L1011.7 1212.5 L1013.7 1211.8 L1015.7 1211.1 L1017.7 1210.4 L1019.7 1209.5 L1021.6 1208.6 L1023.6 1207.6 L1025.5 1206.6 L1027.4 1205.5 L1029.2 1204.3 L1031.1 1203.1 L1032.9 1201.8 L1034.7 1200.4 L1036.4 1199.1 L1038.1 1197.6 L1039.8 1196.1 L1041.5 1194.6 L1043.1 1193.0 L1044.6 1191.4 L1046.2 1189.7 L1047.6 1188.0 L1049.1 1186.3 L1050.5 1184.5 L1051.8 1182.7 L1053.1 1180.9 L1054.4 1179.0 L1055.6 1177.1 L1056.7 1175.2 L1057.8 1173.3 L1058.8 1171.4 L1059.8 1169.4 L1060.7 1167.5 L1061.6 1165.5 L1062.4 1163.5 L1063.1 1161.5 L1063.8 1159.5 L1064.4 1157.5 L1064.9 1155.5 L1065.3 1153.5 L1065.7 1151.5 L1066.0 1149.5 L1066.0 1149.5 L1066.2 1148.4 L1066.2 1147.4 L1066.3 1146.4 L1066.3 1145.4 L1066.3 1144.4 L1066.3 1143.4 L1066.3 1142.5 L1066.2 1141.6 L1066.1 1140.6 L1065.9 1139.7 L1065.7 1138.8 L1065.6 1138.0 L1065.3 1137.1 L1065.1 1136.3 L1064.8 1135.4 L1064.5 1134.6 L1064.2 1133.8 L1063.9 1133.0 L1063.5 1132.2 L1063.1 1131.4 L1062.7 1130.7 L1062.3 1129.9 L1061.9 1129.2 L1061.4 1128.4 L1061.0 1127.7 L1060.5 1127.0 L1060.0 1126.3 L1059.4 1125.6 L1058.9 1124.9 L1058.3 1124.2 L1057.8 1123.6 L1057.2 1122.9 L1056.6 1122.3 L1056.0 1121.6 L1055.4 1121.0 L1054.8 1120.4 L1054.1 1119.7 L1053.5 1119.1 L1052.8 1118.5 L1052.1 1117.9 L1051.5 1117.3 L1050.8 1116.7 L1050.1 1116.1 L1049.4 1115.5 L1048.7 1114.9 L1048.0 1114.4 L1047.3 1113.8 L1046.6 1113.2 L1045.9 1112.6 L1045.2 1112.1 L1044.4 1111.5 L1043.7 1110.9 L1043.0 1110.4 L1042.3 1109.8 L1041.6 1109.3 L1040.9 1108.7 L1040.2 1108.2 L1039.4 1107.6 L1038.7 1107.0 L1038.0 1106.5 L1038.0 1106.5 Z"/></svg>